<svg width="252" height="100" viewBox="0 0 252 100" fill="none" xmlns="http://www.w3.org/2000/svg">
<g id="Skeleton/Column">
<path id="Path 2" fill-rule="evenodd" clip-rule="evenodd" d="M3 0C1.34315 0 0 1.34315 0 3V100H13.9999V3C13.9999 1.34314 12.6568 0 10.9999 0H3Z" fill="#E3EAF1" fill-opacity="0.5"/>
<path id="Path 2_2" fill-rule="evenodd" clip-rule="evenodd" d="M37 26.7324C35.3431 26.7324 34 28.0756 34 29.7324V99.9997H47.9999V29.7324C47.9999 28.0756 46.6568 26.7324 44.9999 26.7324H37Z" fill="#E3EAF1"/>
<path id="Path 2_3" fill-rule="evenodd" clip-rule="evenodd" d="M71 6.93066C69.3431 6.93066 68 8.27381 68 9.93066V100H81.9999V9.93066C81.9999 8.27381 80.6568 6.93066 78.9999 6.93066H71Z" fill="#E3EAF1" fill-opacity="0.5"/>
<path id="Path 2_4" fill-rule="evenodd" clip-rule="evenodd" d="M139 26.7324C137.343 26.7324 136 28.0756 136 29.7324V99.9997H150V29.7324C150 28.0756 148.657 26.7324 147 26.7324H139Z" fill="#E3EAF1"/>
<path id="Path 2_5" fill-rule="evenodd" clip-rule="evenodd" d="M173 6.93066C171.343 6.93066 170 8.27381 170 9.93066V100H184V9.93066C184 8.27381 182.657 6.93066 181 6.93066H173Z" fill="#E3EAF1" fill-opacity="0.5"/>
<path id="Path 2_6" fill-rule="evenodd" clip-rule="evenodd" d="M207 26.9307C205.343 26.9307 204 28.2738 204 29.9307V100H218V29.9307C218 28.2738 216.657 26.9307 215 26.9307H207Z" fill="#E3EAF1"/>
<path id="Path 2_7" fill-rule="evenodd" clip-rule="evenodd" d="M241 46.9307C239.343 46.9307 238 48.2738 238 49.9307V100H252V49.9307C252 48.2738 250.657 46.9307 249 46.9307H241Z" fill="#E3EAF1" fill-opacity="0.5"/>
<path id="Path 2_8" fill-rule="evenodd" clip-rule="evenodd" d="M105 46.5342C103.343 46.5342 102 47.8773 102 49.5342V99.9995H116V49.5342C116 47.8773 114.657 46.5342 113 46.5342H105Z" fill="#E3EAF1" fill-opacity="0.5"/>
</g>
</svg>
