<svg width="1100" height="55" xmlns="http://www.w3.org/2000/svg">
    <g fill="#f1f4f7" fill-rule="evenodd">
        <path d="M3 0h164a3 3 0 0 1 3 3v34a3 3 0 0 1-3 3H3a3 3 0 0 1-3-3V3a3 3 0 0 1 3-3zM189 0h164a3 3 0 0 1 3 3v34a3 3 0 0 1-3 3H189a3 3 0 0 1-3-3V3a3 3 0 0 1 3-3zM375 0h164a3 3 0 0 1 3 3v34a3 3 0 0 1-3 3H375a3 3 0 0 1-3-3V3a3 3 0 0 1 3-3zM561 0h164a3 3 0 0 1 3 3v34a3 3 0 0 1-3 3H561a3 3 0 0 1-3-3V3a3 3 0 0 1 3-3zM747 0h164a3 3 0 0 1 3 3v34a3 3 0 0 1-3 3H747a3 3 0 0 1-3-3V3a3 3 0 0 1 3-3zM933 0h164a3 3 0 0 1 3 3v34a3 3 0 0 1-3 3H933a3 3 0 0 1-3-3V3a3 3 0 0 1 3-3z"/>
    </g>
</svg>
