<svg width="816" height="167" xmlns="http://www.w3.org/2000/svg">

 <g>
  <title>Layer 1</title>
  <g id="svg_1" fill-rule="evenodd" fill="#f1f4f7">
   <path id="svg_2" d="m3,0l186,0a3,3 0 0 1 3,3l0,34a3,3 0 0 1 -3,3l-186,0a3,3 0 0 1 -3,-3l0,-34a3,3 0 0 1 3,-3zm208,0l186,0a3,3 0 0 1 3,3l0,34a3,3 0 0 1 -3,3l-186,0a3,3 0 0 1 -3,-3l0,-34a3,3 0 0 1 3,-3zm208,0l186,0a3,3 0 0 1 3,3l0,34a3,3 0 0 1 -3,3l-186,0a3,3 0 0 1 -3,-3l0,-34a3,3 0 0 1 3,-3zm208,0l186,0a3,3 0 0 1 3,3l0,34a3,3 0 0 1 -3,3l-186,0a3,3 0 0 1 -3,-3l0,-34a3,3 0 0 1 3,-3zm-208,56l186,0a3,3 0 0 1 3,3l0,34a3,3 0 0 1 -3,3l-186,0a3,3 0 0 1 -3,-3l0,-34a3,3 0 0 1 3,-3zm208,0l186,0a3,3 0 0 1 3,3l0,34a3,3 0 0 1 -3,3l-186,0a3,3 0 0 1 -3,-3l0,-34a3,3 0 0 1 3,-3zm-624,0l186,0a3,3 0 0 1 3,3l0,34a3,3 0 0 1 -3,3l-186,0a3,3 0 0 1 -3,-3l0,-34a3,3 0 0 1 3,-3zm208,0l186,0a3,3 0 0 1 3,3l0,34a3,3 0 0 1 -3,3l-186,0a3,3 0 0 1 -3,-3l0,-34a3,3 0 0 1 3,-3zm-208,56l186,0a3,3 0 0 1 3,3l0,34a3,3 0 0 1 -3,3l-186,0a3,3 0 0 1 -3,-3l0,-34a3,3 0 0 1 3,-3zm208,0l186,0a3,3 0 0 1 3,3l0,34a3,3 0 0 1 -3,3l-186,0a3,3 0 0 1 -3,-3l0,-34a3,3 0 0 1 3,-3z"/>
  </g>
 </g>
</svg>