<svg width="200" height="200" viewBox="0 0 200 200" fill="none" xmlns="http://www.w3.org/2000/svg">
<rect x="53" y="148" width="92" height="8" rx="2" fill="#E3EAF1"/>
<path d="M172 116C172 85.1185 152.558 58.7779 125.246 48.5505C117.39 45.6086 108.883 44 100 44C91.5202 44 83.3827 45.4659 75.8273 48.1582C47.9529 58.0909 28 84.7153 28 116" stroke="#AFC3D7" stroke-width="8" stroke-linecap="round"/>
<rect x="87.5" y="86" width="37.5" height="30" rx="3" fill="#E3EAF1"/>
<rect x="65" y="95" width="16.5" height="12" rx="3" fill="#E3EAF1"/>
<path d="M155.479 50.2676C153.575 48.6701 150.737 48.9184 149.139 50.8222L135.641 66.9092C134.043 68.813 134.292 71.6514 136.195 73.2489L136.77 73.731C138.674 75.3285 141.512 75.0802 143.11 73.1763L156.608 57.0894C158.206 55.1856 157.957 52.3472 156.054 50.7497L155.479 50.2676Z" fill="#AFC3D7" stroke="white" stroke-width="3"/>
</svg>
