<svg width="240" height="240" viewBox="0 0 240 240" fill="none" xmlns="http://www.w3.org/2000/svg">
<path fill-rule="evenodd" clip-rule="evenodd" d="M31 63C29.3431 63 28 64.3431 28 66V163H41.9999V66C41.9999 64.3431 40.6568 63 38.9999 63H31Z" fill="#E3EAF1" fill-opacity="0.5"/>
<path fill-rule="evenodd" clip-rule="evenodd" d="M65 89.7324C63.3431 89.7324 62 91.0756 62 92.7324V163H75.9999V92.7324C75.9999 91.0756 74.6568 89.7324 72.9999 89.7324H65Z" fill="#E3EAF1"/>
<path fill-rule="evenodd" clip-rule="evenodd" d="M99 69.9307C97.3431 69.9307 96 71.2738 96 72.9307V163H110V72.9307C110 71.2738 108.657 69.9307 107 69.9307H99Z" fill="#E3EAF1" fill-opacity="0.5"/>
<path fill-rule="evenodd" clip-rule="evenodd" d="M167 89.7324C165.343 89.7324 164 91.0756 164 92.7324V163H178V92.7324C178 91.0756 176.657 89.7324 175 89.7324H167Z" fill="#E3EAF1"/>
<path fill-rule="evenodd" clip-rule="evenodd" d="M201 69.9307C199.343 69.9307 198 71.2738 198 72.9307V163H212V72.9307C212 71.2738 210.657 69.9307 209 69.9307H201Z" fill="#E3EAF1" fill-opacity="0.5"/>
<path fill-rule="evenodd" clip-rule="evenodd" d="M133 109.534C131.343 109.534 130 110.877 130 112.534V163H144V112.534C144 110.877 142.657 109.534 141 109.534H133Z" fill="#E3EAF1" fill-opacity="0.5"/>
</svg>