<svg width="170" height="123" viewBox="0 0 170 123" fill="none" xmlns="http://www.w3.org/2000/svg">
<ellipse cx="85" cy="106.519" rx="85" ry="16.1392" fill="#7596B7" fill-opacity="0.0980392"/>
<path fill-rule="evenodd" clip-rule="evenodd" d="M62.7491 2.02734H108.549L131.427 24.9158V96.3422C131.427 100.65 128.626 103.415 124.448 103.415H62.7491C58.5717 103.415 55.7881 100.65 55.7881 96.3422V8.98897C55.7881 4.68168 58.5717 2.02734 62.7491 2.02734Z" fill="white"/>
<path fill-rule="evenodd" clip-rule="evenodd" d="M61.7594 0H109.532L133.418 24.333V97.332C133.418 101.812 129.853 105.443 125.456 105.443H61.7594C57.3621 105.443 53.7974 101.812 53.7974 97.332V8.111C53.7974 3.63142 57.3621 0 61.7594 0ZM62.7489 2.02775H108.549L131.427 24.9162V96.3426C131.427 100.65 128.626 103.415 124.448 103.415H62.7489C58.5715 103.415 55.7879 100.65 55.7879 96.3426V8.98938C55.7879 4.68209 58.5715 2.02775 62.7489 2.02775Z" fill="#C7D3D9"/>
<path fill-rule="evenodd" clip-rule="evenodd" d="M111.522 4.70801L128.99 22.3049H118.157C114.493 22.3049 111.522 19.2787 111.522 15.5457L111.522 4.70801Z" fill="white"/>
<path fill-rule="evenodd" clip-rule="evenodd" d="M109.532 0L133.418 24.333H117.494C113.096 24.333 109.532 20.7016 109.532 16.222V0ZM111.522 4.70837L128.99 22.3053H118.157C114.493 22.3053 111.522 19.2791 111.522 15.5461V4.70837Z" fill="#C7D3D9"/>
<rect x="69.7212" y="30.416" width="23.8861" height="3.04163" rx="1.5" fill="#C7D3D9"/>
<rect x="69.7212" y="41.5684" width="39.8101" height="3.04163" rx="1.5" fill="#C7D3D9"/>
<rect x="69.7212" y="54.749" width="47.7722" height="3.04163" rx="1.5" fill="#C7D3D9"/>
<rect x="69.7212" y="70.9707" width="47.7722" height="3.04163" rx="1.5" fill="#C7D3D9"/>
<rect x="69.7212" y="86.1787" width="47.7722" height="3.04163" rx="1.5" fill="#C7D3D9"/>
<g clip-path="url(#clip0_2_12524)">
<path d="M51.1495 59.1016H56.8714C57.43 59.1016 57.8846 59.5571 57.8846 60.1212V65.2692L59.4157 65.6576C61.2904 66.1332 63.0863 66.8792 64.7471 67.8722L66.107 68.6852L69.7524 65.0323C70.0971 64.7087 70.7029 64.7087 71.0925 65.0758L74.7472 69.1624C75.0038 69.4252 75.11 69.6821 75.1111 69.9505C75.1143 70.1792 75.0312 70.3785 74.8823 70.5216L71.2145 74.1965L72.0157 75.5507C73.0041 77.2213 73.75 79.0245 74.2309 80.906L74.6213 82.4336H79.7589C80.3175 82.4336 80.7721 82.8891 80.7721 83.4532V89.1871C80.7721 89.7511 80.3175 90.2067 79.7589 90.2067H74.6213L74.2309 91.7343C73.75 93.6158 73.0041 95.419 72.0157 97.0896L71.2145 98.4438L74.8521 102.089C75.0036 102.247 75.1055 102.491 75.1117 102.748C75.11 102.958 75.0038 103.215 74.8158 103.405L70.7737 107.456C70.429 107.779 69.8232 107.779 69.4336 107.412L65.8407 103.81L64.4847 104.609C62.8105 105.595 61.0081 106.344 59.1289 106.834L57.6107 107.229V112.367C57.5665 112.656 57.1401 113.044 56.63 113.051L50.9365 113.051C50.3779 113.051 49.9233 112.595 49.9233 112.031V106.883L48.3922 106.495C46.5175 106.019 44.7216 105.273 43.0608 104.28L41.7009 103.467L38.0556 107.12C37.7108 107.444 37.105 107.444 36.7154 107.076L32.7123 103.064C32.5302 102.88 32.424 102.623 32.4229 102.354C32.4197 102.126 32.5028 101.926 32.6517 101.783L36.3195 98.1083L35.5183 96.7541C34.5299 95.0835 33.784 93.2803 33.3032 91.3988L32.9127 89.8712H27.836C27.2773 89.8712 26.8228 89.4157 26.8228 88.8516V83.1177C26.8228 82.5536 27.2773 82.0981 27.836 82.0981H32.9736L33.364 80.5705C33.8449 78.689 34.5908 76.8858 35.5792 75.2152L36.3804 73.861L32.7428 70.2158C32.5913 70.0579 32.4894 69.8136 32.4832 69.5573C32.4849 69.3466 32.5911 69.0897 32.7791 68.8998L36.9126 65.0906C37.3181 64.7087 37.9239 64.7087 38.3135 65.0758L41.9064 68.6777L43.2624 67.879C44.9365 66.8929 46.739 66.1442 48.6182 65.6543L50.1364 65.2585V60.1212C50.1364 59.5571 50.5909 59.1016 51.1495 59.1016Z" fill="white"/>
<path fill-rule="evenodd" clip-rule="evenodd" d="M51.4107 58.1016L51.0355 58.1167C48.6844 58.3079 46.8372 60.279 46.8372 62.6808L46.8351 64.5357L46.2134 64.7455C45.5599 64.9822 44.9176 65.249 44.2887 65.545L43.703 65.8377L42.391 64.5222C40.5896 62.8237 37.843 62.8237 36.082 64.4829L32.3105 67.961C31.4062 68.8718 30.9305 70.0225 30.9255 71.2231L30.956 71.6673C31.0732 72.691 31.5096 73.6193 32.2053 74.3419L33.538 75.6786L33.3752 76.0031C32.9827 76.8095 32.6395 77.6391 32.3477 78.4874L32.236 78.829L30.3963 78.8303C27.8695 78.8303 25.8228 80.8813 25.8228 83.4096V88.578L25.8379 88.9534C26.0286 91.3062 27.9959 93.1573 30.3963 93.1573L32.1811 93.1562L32.2928 93.5002C32.5847 94.3484 32.9278 95.178 33.3204 95.9844L33.4857 96.3066L32.1734 97.6221C31.3349 98.4275 30.8533 99.5822 30.8708 100.783C30.8757 101.965 31.3514 103.116 32.1956 103.969L35.8496 107.63L36.1769 107.912C37.9707 109.323 40.5011 109.231 42.1585 107.67L43.5043 106.32L43.8201 106.484C44.626 106.879 45.4557 107.223 46.3042 107.516L46.6443 107.625L46.6451 109.472C46.6451 112 48.6919 114.051 51.2186 114.051H56.3762L56.7834 114.028C58.9297 113.811 60.6455 112.135 60.8838 109.975L60.8878 107.92L61.5186 107.709C62.1722 107.473 62.8144 107.206 63.4434 106.91L64.0278 106.615L65.3411 107.933C67.1425 109.631 69.8891 109.631 71.65 107.972L75.3391 104.276C76.1886 103.418 76.6643 102.267 76.6694 101.067L76.6389 100.623C76.5217 99.599 76.0853 98.6707 75.3896 97.948L74.0542 96.6073L74.2196 96.2868C74.6122 95.4804 74.9554 94.6508 75.2472 93.8026L75.3562 93.4595L77.1986 93.4597C79.7253 93.4597 81.7721 91.4086 81.7721 88.8804V83.712L81.757 83.3365C81.5662 80.9838 79.599 79.1327 77.1986 79.1327L75.3562 79.1322L75.2472 78.7898C74.9554 77.9415 74.6122 77.1119 74.2196 76.3055L74.0542 75.9818L75.3666 74.6678C76.2051 73.8624 76.6867 72.7077 76.6692 71.5066C76.665 70.4726 76.3002 69.4624 75.6435 68.6546L72.0045 64.5931L71.666 64.2992C69.8162 62.8294 67.2858 62.9213 65.6284 64.4829L64.2814 65.8299L63.9668 65.6688C63.1609 65.2737 62.3312 64.9291 61.4827 64.637L61.1414 64.5253L61.1418 62.6808C61.1418 60.1526 59.095 58.1016 56.5683 58.1016H51.4107ZM51.4107 61.7618H56.5683C57.0718 61.7618 57.4815 62.1724 57.4815 62.6808V67.3212L58.8616 67.6713C60.5514 68.1 62.1702 68.7724 63.6673 69.6675L64.8931 70.4004L68.1789 67.1076C68.4897 66.816 69.0357 66.816 69.3869 67.1469L72.6811 70.8305C72.9124 71.0674 73.0082 71.2989 73.0092 71.5409C73.0121 71.747 72.9371 71.9266 72.8029 72.0556L69.4968 75.3681L70.219 76.5888C71.1099 78.0946 71.7822 79.72 72.2157 81.416L72.5676 82.7929H77.1986C77.7021 82.7929 78.1119 83.2035 78.1119 83.712V88.8804C78.1119 89.3888 77.7021 89.7994 77.1986 89.7994H72.5676L72.2157 91.1764C71.7822 92.8723 71.1099 94.4977 70.219 96.0036L69.4968 97.2242L72.7757 100.51C72.9123 100.652 73.0041 100.873 73.0097 101.104C73.0082 101.293 72.9124 101.525 72.743 101.696L69.0995 105.347C68.7888 105.639 68.2427 105.639 67.8916 105.308L64.653 102.061L63.4307 102.781C61.9217 103.67 60.297 104.345 58.6031 104.787L57.2346 105.143V109.774C57.1948 110.035 56.8104 110.384 56.3507 110.391L51.2186 110.391C50.7151 110.391 50.3054 109.98 50.3054 109.472V104.831L48.9253 104.481C47.2355 104.052 45.6167 103.38 44.1196 102.485L42.8939 101.752L39.608 105.045C39.2973 105.336 38.7512 105.336 38.4001 105.006L34.7918 101.388C34.6276 101.223 34.5318 100.991 34.5308 100.749C34.5279 100.543 34.6029 100.363 34.7371 100.234L38.0432 96.9218L37.321 95.7012C36.4301 94.1953 35.7578 92.5699 35.3243 90.874L34.9724 89.497H30.3963C29.8927 89.497 29.483 89.0864 29.483 88.578V83.4096C29.483 82.9011 29.8927 82.4905 30.3963 82.4905H35.0272L35.3792 81.1136C35.8126 79.4176 36.485 77.7922 37.3759 76.2864L38.098 75.0657L34.8192 71.78C34.6826 71.6377 34.5908 71.4174 34.5852 71.1864C34.5867 70.9965 34.6825 70.765 34.8519 70.5938L38.5778 67.1602C38.9433 66.816 39.4893 66.816 39.8405 67.1469L43.0791 70.3935L44.3014 69.6736C45.8104 68.7848 47.4351 68.1099 49.129 67.6683L50.4974 67.3115V62.6808C50.4974 62.1724 50.9072 61.7618 51.4107 61.7618ZM53.7974 76.4028C48.4549 76.4028 44.1239 80.7337 44.1239 86.0762C44.1239 91.4188 48.4549 95.7497 53.7974 95.7497C59.14 95.7497 63.4709 91.4188 63.4709 86.0762C63.4709 80.7337 59.14 76.4028 53.7974 76.4028ZM53.7974 80.063C57.1185 80.063 59.8107 82.7552 59.8107 86.0762C59.8107 89.3973 57.1185 92.0895 53.7974 92.0895C50.4764 92.0895 47.7842 89.3973 47.7842 86.0762C47.7842 82.7552 50.4764 80.063 53.7974 80.063Z" fill="#AFC3D7"/>
</g>
<defs>
<clipPath id="clip0_2_12524">
<rect width="55.9494" height="55.9494" fill="white" transform="translate(25.8228 58.1016)"/>
</clipPath>
</defs>
</svg>
