<svg xmlns="http://www.w3.org/2000/svg" width="72" height="72" viewBox="0 0 72 72">
    <g fill="none" fill-rule="evenodd">
        <g fill="#7596B7" fill-rule="nonzero">
            <g>
                <g fill-opacity=".051" transform="translate(-708.000000, -394.000000) translate(708.000000, 394.000000)">
                    <rect width="72" height="72" rx="20"/>
                </g>
                <g>
                    <path d="M21.06 4c9.422 0 17.06 7.638 17.06 17.06 0 4.097-1.444 7.856-3.851 10.797l9.931 9.93c.667.667.667 1.747 0 2.413-.6.6-1.534.66-2.2.18l-.212-.18-9.93-9.931c-2.942 2.407-6.701 3.85-10.798 3.85C11.638 38.12 4 30.483 4 21.06 4 11.639 11.638 4 21.06 4zm0 3.412c-7.538 0-13.648 6.11-13.648 13.648 0 7.537 6.11 13.648 13.648 13.648 7.537 0 13.648-6.11 13.648-13.648 0-7.538-6.11-13.648-13.648-13.648z" transform="translate(-708.000000, -394.000000) translate(708.000000, 394.000000) translate(12.000000, 12.000000)"/>
                </g>
            </g>
        </g>
    </g>
</svg>
