<?xml version="1.0" encoding="UTF-8"?>
<svg width="17px" height="17px" viewBox="0 0 17 17" version="1.1" xmlns="http://www.w3.org/2000/svg" xmlns:xlink="http://www.w3.org/1999/xlink">
    <!-- Generator: Sketch 63.1 (92452) - https://sketch.com -->
    <title>Group 53</title>
    <desc>Created with Sketch.</desc>
    <g id="ReportBuilder_V7" stroke="none" stroke-width="1" fill="none" fill-rule="evenodd">
        <g id="Artboard" transform="translate(-179.000000, -134.000000)">
            <g id="Group-53" transform="translate(175.000000, 130.000000)">
                <rect id="Rectangle-Copy-43" fill-opacity="0" fill="#E2E9F0" x="0" y="0" width="24" height="24"></rect>
                <path d="M12.5,4.5 C16.918,4.5 20.5,8.082 20.5,12.5 C20.5,16.918 16.918,20.5 12.5,20.5 C8.082,20.5 4.5,16.918 4.5,12.5 C4.5,8.082 8.082,4.5 12.5,4.5 Z M12.5,5.5 C8.64,5.5 5.5,8.64 5.5,12.5 C5.5,16.36 8.64,19.5 12.5,19.5 C16.36,19.5 19.5,16.36 19.5,12.5 C19.5,8.64 16.36,5.5 12.5,5.5 Z M12.5,11 C12.914,11 13.25,11.336 13.25,11.75 L13.25,15.25 C13.25,15.6295 12.9676667,15.9434583 12.6017257,15.9931493 L12.5,16 C12.086,16 11.75,15.664 11.75,15.25 L11.75,11.75 C11.75,11.336 12.086,11 12.5,11 Z M12.5,8.75 C12.914,8.75 13.25,9.086 13.25,9.5 C13.25,9.8795 12.9676667,10.1934583 12.6017257,10.2431493 L12.5,10.25 C12.086,10.25 11.75,9.914 11.75,9.5 C11.75,9.086 12.086,8.75 12.5,8.75 Z" id="Combined-Shape" fill="#2A333E"></path>
            </g>
        </g>
    </g>
</svg>