<?xml version="1.0" encoding="UTF-8"?>
<svg width="17px" height="17px" viewBox="0 0 17 17" version="1.1" xmlns="http://www.w3.org/2000/svg" xmlns:xlink="http://www.w3.org/1999/xlink">
    <!-- Generator: Sketch 63.1 (92452) - https://sketch.com -->
    <title>Group</title>
    <desc>Created with Sketch.</desc>
    <g id="ReportBuilder_V7" stroke="none" stroke-width="1" fill="none" fill-rule="evenodd">
        <g id="Artboard" transform="translate(-140.000000, -134.000000)">
            <g id="Group" transform="translate(136.000000, 130.000000)">
                <rect id="Rectangle-Copy-43" fill-opacity="0" fill="#E2E9F0" x="0" y="0" width="24" height="24"></rect>
                <g id="Group-53" transform="translate(4.000000, 4.000000)" fill="#8399AF">
                    <path d="M8.5,0.5 C12.918,0.5 16.5,4.082 16.5,8.5 C16.5,12.918 12.918,16.5 8.5,16.5 C4.082,16.5 0.5,12.918 0.5,8.5 C0.5,4.082 4.082,0.5 8.5,0.5 Z M8.5,1.5 C4.64,1.5 1.5,4.64 1.5,8.5 C1.5,12.36 4.64,15.5 8.5,15.5 C12.36,15.5 15.5,12.36 15.5,8.5 C15.5,4.64 12.36,1.5 8.5,1.5 Z M8.5,7 C8.914,7 9.25,7.336 9.25,7.75 L9.25,11.25 C9.25,11.6295 8.96766667,11.9434583 8.60172569,11.9931493 L8.5,12 C8.086,12 7.75,11.664 7.75,11.25 L7.75,7.75 C7.75,7.336 8.086,7 8.5,7 Z M8.5,4.75 C8.914,4.75 9.25,5.086 9.25,5.5 C9.25,5.8795 8.96766667,6.19345833 8.60172569,6.24314931 L8.5,6.25 C8.086,6.25 7.75,5.914 7.75,5.5 C7.75,5.086 8.086,4.75 8.5,4.75 Z" id="Combined-Shape"></path>
                </g>
            </g>
        </g>
    </g>
</svg>