<?xml version="1.0" encoding="UTF-8"?>
<svg width="88px" height="88px" viewBox="0 0 88 88" version="1.1" xmlns="http://www.w3.org/2000/svg" xmlns:xlink="http://www.w3.org/1999/xlink">
    <!-- Generator: Sketch 49.3 (51167) - http://www.bohemiancoding.com/sketch -->
    <title>Configure illustration</title>
    <desc>Created with Sketch.</desc>
    <defs></defs>
    <g id="Page-1" stroke="none" stroke-width="1" fill="none" fill-rule="evenodd">
        <g id="Scorecard" transform="translate(-672.000000, -232.000000)">
            <g id="Configure-illustration" transform="translate(672.000000, 232.000000)">
                <circle id="Oval" fill="#F0F3F6" cx="44" cy="44" r="44"></circle>
                <g id="Group-3" transform="translate(19.000000, 20.000000)" fill="#077796">
                    <path d="M36.0230642,15.372 C36.0790642,14.924 36.1210642,14.476 36.1210642,14 C36.1210642,13.524 36.0790642,13.076 36.0230642,12.628 L38.9770642,10.318 C39.2430642,10.108 39.3130642,9.73 39.1450642,9.422 L36.3450642,4.578 C36.1770642,4.27 35.7990642,4.158 35.4910642,4.27 L32.0050642,5.67 C31.2770642,5.11 30.4930642,4.648 29.6390642,4.298 L29.1070642,0.588 C29.0650642,0.252 28.7710642,0 28.4210642,0 L22.8210642,0 C22.4710642,0 22.1770642,0.252 22.1350642,0.588 L21.6030642,4.298 C20.7490642,4.648 19.9650642,5.124 19.2370642,5.67 L15.7510642,4.27 C15.4290642,4.144 15.0650642,4.27 14.8970642,4.578 L12.0970642,9.422 C11.9150642,9.73 11.9990642,10.108 12.2650642,10.318 L15.2190642,12.628 C15.1630642,13.076 15.1210642,13.538 15.1210642,14 C15.1210642,14.462 15.1630642,14.924 15.2190642,15.372 L12.2650642,17.682 C11.9990642,17.892 11.9290642,18.27 12.0970642,18.578 L14.8970642,23.422 C15.0650642,23.73 15.4430642,23.842 15.7510642,23.73 L19.2370642,22.33 C19.9650642,22.89 20.7490642,23.352 21.6030642,23.702 L22.1350642,27.412 C22.1770642,27.748 22.4710642,28 22.8210642,28 L28.4210642,28 C28.7710642,28 29.0650642,27.748 29.1070642,27.412 L29.6390642,23.702 C30.4930642,23.352 31.2770642,22.876 32.0050642,22.33 L35.4910642,23.73 C35.8130642,23.856 36.1770642,23.73 36.3450642,23.422 L39.1450642,18.578 C39.3130642,18.27 39.2430642,17.892 38.9770642,17.682 L36.0230642,15.372 Z M25.6210642,18.9 C22.9190642,18.9 20.7210642,16.702 20.7210642,14 C20.7210642,11.298 22.9190642,9.1 25.6210642,9.1 C28.3230642,9.1 30.5210642,11.298 30.5210642,14 C30.5210642,16.702 28.3230642,18.9 25.6210642,18.9 Z" id="Shape" fill-rule="nonzero"></path>
                    <rect id="Rectangle-3" x="24" y="31" width="3" height="4"></rect>
                    <rect id="Rectangle-4" x="30" y="39" width="10" height="3"></rect>
                    <rect id="Rectangle-4-Copy" x="11" y="39" width="10" height="3"></rect>
                    <path d="M25.5,46.5 C22.1862915,46.5 19.5,43.8137085 19.5,40.5 C19.5,37.1862915 22.1862915,34.5 25.5,34.5 C28.8137085,34.5 31.5,37.1862915 31.5,40.5 C31.5,43.8137085 28.8137085,46.5 25.5,46.5 Z M25.5,43.5 C27.1568542,43.5 28.5,42.1568542 28.5,40.5 C28.5,38.8431458 27.1568542,37.5 25.5,37.5 C23.8431458,37.5 22.5,38.8431458 22.5,40.5 C22.5,42.1568542 23.8431458,43.5 25.5,43.5 Z" id="Oval-2" fill-rule="nonzero"></path>
                    <path d="M44.5,46.5 C41.1862915,46.5 38.5,43.8137085 38.5,40.5 C38.5,37.1862915 41.1862915,34.5 44.5,34.5 C47.8137085,34.5 50.5,37.1862915 50.5,40.5 C50.5,43.8137085 47.8137085,46.5 44.5,46.5 Z M44.5,43.5 C46.1568542,43.5 47.5,42.1568542 47.5,40.5 C47.5,38.8431458 46.1568542,37.5 44.5,37.5 C42.8431458,37.5 41.5,38.8431458 41.5,40.5 C41.5,42.1568542 42.8431458,43.5 44.5,43.5 Z" id="Oval-2-Copy" fill-rule="nonzero"></path>
                    <path d="M6.5,46.5 C3.1862915,46.5 0.5,43.8137085 0.5,40.5 C0.5,37.1862915 3.1862915,34.5 6.5,34.5 C9.8137085,34.5 12.5,37.1862915 12.5,40.5 C12.5,43.8137085 9.8137085,46.5 6.5,46.5 Z M6.5,43.5 C8.15685425,43.5 9.5,42.1568542 9.5,40.5 C9.5,38.8431458 8.15685425,37.5 6.5,37.5 C4.84314575,37.5 3.5,38.8431458 3.5,40.5 C3.5,42.1568542 4.84314575,43.5 6.5,43.5 Z" id="Oval-2-Copy-2" fill-rule="nonzero"></path>
                </g>
            </g>
        </g>
    </g>
</svg>