<svg width="152" height="104" viewBox="0 0 152 104" fill="none" xmlns="http://www.w3.org/2000/svg">
<rect x="1" y="1" width="86" height="46" rx="7" fill="white" stroke="#E3EAF1" stroke-width="2"/>
<rect x="16" y="13" width="33.25" height="4" rx="2" fill="#E3EAF1"/>
<rect x="16" y="25" width="56" height="2" rx="1" fill="#E3EAF1"/>
<rect x="16" y="33" width="56" height="2" rx="1" fill="#E3EAF1"/>
<rect x="97" y="1" width="54" height="46" rx="7" fill="white" stroke="#E3EAF1" stroke-width="2"/>
<rect x="112" y="13" width="16" height="4" rx="2" fill="#E3EAF1"/>
<rect x="112" y="25" width="24" height="2" rx="1" fill="#E3EAF1"/>
<rect x="112" y="33" width="24" height="2" rx="1" fill="#E3EAF1"/>
<rect x="1" y="57" width="150" height="46" rx="7" fill="white" stroke="#E3EAF1" stroke-width="2"/>
<rect x="16" y="69" width="33.25" height="4" rx="2" fill="#E3EAF1"/>
<rect x="16" y="81" width="120" height="2" rx="1" fill="#E3EAF1"/>
<rect x="16" y="89" width="120" height="2" rx="1" fill="#E3EAF1"/>
</svg>
