<?xml version="1.0" encoding="UTF-8"?>
<svg width="14px" height="322px" viewBox="0 0 14 322" version="1.1" xmlns="http://www.w3.org/2000/svg" xmlns:xlink="http://www.w3.org/1999/xlink">
    <!-- Generator: Sketch 61.2 (89653) - https://sketch.com -->
    <title>Group 6</title>
    <desc>Created with Sketch.</desc>
    <g id="Page-1" stroke="none" stroke-width="1" fill="none" fill-rule="evenodd">
        <g id="Artboard" transform="translate(-19.000000, -21.000000)">
            <g id="Group-8-Copy" transform="translate(16.000000, 16.000000)">
                <g id="Group-7">
                    <g id="Group-6">
                        <g id="Group-5" transform="translate(0.000000, 192.000000)">
                            <rect id="Rectangle" x="0" y="0" width="20" height="20"></rect>
                            <path d="M16,4 L16,15 L5,15 L5,4 L16,4 Z M15,5 L6,5 L6,14 L15,14 L15,5 Z M12,8 L12,11 L9,11 L9,8 L12,8 Z" id="Combined-Shape" fill="#8399AF" fill-rule="nonzero"></path>
                        </g>
                        <g id="Group" transform="translate(0.000000, 216.000000)">
                            <rect id="Rectangle" x="0" y="0" width="20" height="20"></rect>
                            <path d="M14.6933333,4 L14.0466667,4.66666667 L4.33333333,4.66666667 L4.33333333,14.6333333 L3,16 L4.68666667,16 L5.33333333,15.3333333 L15,15.3333333 L15,5.37333333 L16.3333333,4 L14.6933333,4 Z M5.66666667,6 L12.7466667,6 L10.1466667,8.66666667 L8.33333333,8.66666667 L8.33333333,10.5266667 L5.66666667,13.2666667 L5.66666667,6 Z M9.21266667,11.3333333 L11,11.3333333 L11,9.49333333 L13.6666667,6.74666667 L13.6666667,14 L6.62666667,14 L9.21266667,11.3333333 Z" id="Fill-1" fill="#8399AF"></path>
                        </g>
                        <g id="Group-55" transform="translate(0.000000, 240.000000)">
                            <rect id="Rectangle" x="0" y="0" width="20" height="20"></rect>
                            <path d="M7.33333333,6 L7.33333333,14 L6,14 L6,6 L7.33333333,6 Z M9.66666667,12 C10.2189514,12 10.6666667,12.4477153 10.6666667,13 C10.6666667,13.5522847 10.2189514,14 9.66666667,14 C9.11438192,14 8.66666667,13.5522847 8.66666667,13 C8.66666667,12.4477153 9.11438192,12 9.66666667,12 Z M13,12 C13.5522847,12 14,12.4477153 14,13 C14,13.5522847 13.5522847,14 13,14 C12.4477153,14 12,13.5522847 12,13 C12,12.4477153 12.4477153,12 13,12 Z" id="Combined-Shape" fill="#8399AF" fill-rule="nonzero"></path>
                        </g>
                        <g id="Group-55-Copy" transform="translate(0.000000, 264.000000)">
                            <rect id="Rectangle" x="0" y="0" width="20" height="20"></rect>
                            <path d="M7.33333333,6 L7.33333333,14 L6,14 L6,6 L7.33333333,6 Z M9.66666667,12 C10.2189514,12 10.6666667,12.4477153 10.6666667,13 C10.6666667,13.5522847 10.2189514,14 9.66666667,14 C9.11438192,14 8.66666667,13.5522847 8.66666667,13 C8.66666667,12.4477153 9.11438192,12 9.66666667,12 Z M13,12 C13.5522847,12 14,12.4477153 14,13 C14,13.5522847 13.5522847,14 13,14 C12.4477153,14 12,13.5522847 12,13 C12,12.4477153 12.4477153,12 13,12 Z" id="Combined-Shape" fill="#8399AF" fill-rule="nonzero" transform="translate(10.000000, 10.000000) scale(-1, 1) translate(-10.000000, -10.000000) "></path>
                        </g>
                        <g id="Group-49" transform="translate(0.000000, 168.000000)">
                            <g id="Group-46-Copy">
                                <rect id="Rectangle" x="0" y="0" width="20" height="20"></rect>
                            </g>
                            <path d="M14.1423244,5 L13.0553139,6.74331883 C13.6797214,7.5956123 13.9964781,8.6917273 14.0055935,10.0316967 L14.0055935,10.7085146 C14.0055935,11.6838665 13.8415181,12.5350078 13.5133623,13.261964 C13.1852066,13.9889201 12.7203262,14.5438141 12.1187073,14.9266625 C11.5170884,15.3095109 10.8152101,15.5009323 10.0130516,15.5009323 C9.23368162,15.5009323 8.54547636,15.3140686 7.94841516,14.9403356 L7.28527035,16 L6.31448104,16 L7.29894344,14.4207582 C6.43297682,13.5456762 6,12.2877646 6,10.6469857 L6,10.0795525 C6,9.12243151 6.16635425,8.2769873 6.49906774,7.54319453 C6.83178124,6.80940176 7.30235867,6.24767131 7.91081417,5.85798633 C8.51926967,5.46830135 9.21545081,5.27346178 9.9993785,5.27346178 C10.9747304,5.27346178 11.7996652,5.55831495 12.4742076,6.12802983 L13.1783717,5 L14.1423244,5 Z M12.3169671,7.92604102 L8.56370416,13.9490367 C8.9784566,14.2407307 9.46156758,14.3865755 10.0130516,14.3865755 C10.8607873,14.3865755 11.517089,14.0777947 11.9819764,13.4602237 C12.4468637,12.8426528 12.6861404,11.9573292 12.6998135,10.8042262 L12.6998135,10.8042262 L12.6998135,10.0658794 C12.6998135,9.23637456 12.5721993,8.52310222 12.3169671,7.92604102 L12.3169671,7.92604102 Z M9.9993785,6.40149161 C9.16987362,6.40149161 8.51699016,6.71710892 8.04070851,7.34835301 C7.56442687,7.97959711 7.31945314,8.85580546 7.30577999,9.97700435 L7.30577999,10.7085146 C7.30577999,11.8205981 7.52910487,12.6979458 7.97576134,13.3405842 L11.8315724,7.16034804 C11.3666851,6.65444122 10.7559599,6.40149161 9.9993785,6.40149161 Z" id="Ø" fill="#8399AF" fill-rule="nonzero"></path>
                        </g>
                        <g id="Group-50" transform="translate(0.000000, 144.000000)">
                            <g id="Group-46-Copy">
                                <rect id="Rectangle" x="0" y="0" width="20" height="20"></rect>
                            </g>
                            <path d="M9.91042781,5 C10.6902891,5 11.3776708,5.18827797 11.9725936,5.56483957 C12.5675163,5.94140117 13.0253995,6.48729589 13.3462567,7.20254011 C13.6671139,7.91778432 13.8275401,8.74999525 13.8275401,9.69919786 L13.8275401,10.3141711 C13.8275401,11.2678301 13.6671139,12.100041 13.3462567,12.8108289 C13.0253995,13.5216167 12.5708586,14.0641693 11.9826203,14.4385027 C11.3943821,14.8128361 10.7081144,15 9.92379679,15 C9.15730455,15 8.47772132,14.811722 7.88502674,14.4351604 C7.29233215,14.0585988 6.83222089,13.5216167 6.50467914,12.8241979 C6.1771374,12.126779 6.0089127,11.3190777 6,10.4010695 L6,9.69919786 C6,8.7633643 6.16265434,7.93672373 6.48796791,7.21925134 C6.81328148,6.50177894 7.27339275,5.95254201 7.86831551,5.57152406 C8.46323827,5.19050612 9.14393556,5 9.91042781,5 Z M9.91042781,6.10294118 C9.09937206,6.10294118 8.46100946,6.4115388 7.99532086,7.02874332 C7.52963225,7.64594783 7.29010702,8.50266832 7.27673797,9.59893048 L7.27673797,9.59893048 L7.27673797,10.3141711 C7.27673797,11.432715 7.51180692,12.3117169 7.98195187,12.9512032 C8.45209682,13.5906895 9.09937199,13.9104278 9.92379679,13.9104278 C10.7526779,13.9104278 11.3943828,13.6085146 11.8489305,13.0046791 C12.3034782,12.4008437 12.5374331,11.5352106 12.5508021,10.407754 L12.5508021,10.407754 L12.5508021,9.68582888 C12.5508021,8.53163416 12.3190754,7.64594783 11.855615,7.02874332 C11.3921545,6.4115388 10.7437653,6.10294118 9.91042781,6.10294118 Z" id="O" fill="#8399AF" fill-rule="nonzero"></path>
                        </g>
                        <g id="Group-51" transform="translate(0.000000, 96.000000)">
                            <g id="Group-46-Copy">
                                <rect id="Rectangle" x="0" y="0" width="20" height="20"></rect>
                            </g>
                            <polygon id="&gt;" fill="#8399AF" fill-rule="nonzero" points="12.5880399 10.4750831 6 7.89368771 6 6 14.5116279 9.76744186 14.5116279 11.2225914 6 15 6 13.0863787"></polygon>
                        </g>
                        <g id="Group-52" transform="translate(0.000000, 48.000000)">
                            <g id="Group-51-Copy-2">
                                <g id="Group-46-Copy">
                                    <rect id="Rectangle" x="0" y="0" width="20" height="20"></rect>
                                </g>
                            </g>
                            <path d="M14.6875,8.67708333 L6,8.67708333 L6,7 L14.6875,7 L14.6875,8.67708333 Z M14.6875,13 L6,13 L6,11.3333333 L14.6875,11.3333333 L14.6875,13 Z" id="=" fill="#8399AF" fill-rule="nonzero"></path>
                        </g>
                        <g id="Group-53" transform="translate(0.000000, 72.000000)">
                            <g id="Group-52-Copy">
                                <g id="Group-51-Copy-2">
                                    <g id="Group-46-Copy">
                                        <rect id="Rectangle" x="0" y="0" width="20" height="20"></rect>
                                    </g>
                                </g>
                            </g>
                            <polygon id="≠" fill="#8399AF" fill-rule="nonzero" points="14.4787431 13.5194085 9.08040665 13.5194085 7.63678373 16 6.67097967 15.4001848 7.7689464 13.5194085 6 13.5194085 6 11.8927911 8.71441774 11.8927911 10.2292052 9.30036969 6 9.30036969 6 7.66358595 11.1848429 7.66358595 12.7402957 5 13.7060998 5.59981516 12.4963031 7.66358595 14.4787431 7.66358595 14.4787431 9.30036969 11.5406654 9.30036969 10.0360444 11.8927911 14.4787431 11.8927911"></polygon>
                        </g>
                        <g id="Group-54">
                            <g id="Group-52-Copy">
                                <g id="Group-51-Copy-2">
                                    <g id="Group-46-Copy">
                                        <rect id="Rectangle" x="0" y="0" width="20" height="20"></rect>
                                    </g>
                                </g>
                            </g>
                            <path d="M7.86479875,8.77216555 L13.6438286,10.8742754 L13.6438286,12.5027874 L6.09231677,9.35377698 L6.09231677,8.14070171 L13.6438286,5 L13.6438286,6.628512 L7.86479875,8.77216555 Z M13.7084503,15 L6,15 L6,13.6060168 L13.7084503,13.6060168 L13.7084503,15 Z" id="≤" fill="#8399AF" fill-rule="nonzero"></path>
                        </g>
                        <g id="Group-51-Copy" transform="translate(0.000000, 120.000000)">
                            <g id="Group-46-Copy">
                                <rect id="Rectangle" x="0" y="0" width="20" height="20"></rect>
                            </g>
                            <polygon id="&gt;" fill="#8399AF" fill-rule="nonzero" transform="translate(10.255814, 10.500000) scale(-1, 1) translate(-10.255814, -10.500000) " points="12.5880399 10.4750831 6 7.89368771 6 6 14.5116279 9.76744186 14.5116279 11.2225914 6 15 6 13.0863787"></polygon>
                        </g>
                        <g id="Group-54-Copy" transform="translate(0.000000, 24.000000)">
                            <g id="Group-52-Copy">
                                <g id="Group-51-Copy-2">
                                    <g id="Group-46-Copy">
                                        <rect id="Rectangle" x="0" y="0" width="20" height="20"></rect>
                                    </g>
                                </g>
                            </g>
                            <path d="M7.86479875,8.77216555 L13.6438286,10.8742754 L13.6438286,12.5027874 L6.09231677,9.35377698 L6.09231677,8.14070171 L13.6438286,5 L13.6438286,6.628512 L7.86479875,8.77216555 Z M13.7084503,15 L6,15 L6,13.6060168 L13.7084503,13.6060168 L13.7084503,15 Z" id="≤" fill="#8399AF" fill-rule="nonzero" transform="translate(9.854225, 10.000000) scale(-1, 1) translate(-9.854225, -10.000000) "></path>
                        </g>
                        <g id="Group-2" transform="translate(0.000000, 288.000000)">
                            <rect id="Rectangle" x="0" y="0" width="20" height="20"></rect>
                            <path d="M13.9605615,12.0280749 C13.8723258,12.9625715 13.5274094,13.6915081 12.9258021,14.2149064 C12.3241949,14.7383048 11.5240692,15 10.5254011,15 C9.82753662,15 9.21290373,14.8345605 8.68148396,14.5036765 C8.15006419,14.1727925 7.73997471,13.7025432 7.45120321,13.0929144 C7.16243171,12.4832857 7.01203215,11.7754011 7,10.9692513 L7,10.1510695 C7,9.32486218 7.14638891,8.59692828 7.43917112,7.96724599 C7.73195334,7.3375637 8.15206946,6.85227443 8.69953209,6.51136364 C9.24699472,6.17045284 9.87967555,6 10.5975936,6 C11.564176,6 12.342243,6.26269791 12.9318182,6.7881016 C13.5213933,7.3135053 13.8643043,8.05547649 13.9605615,9.01403743 L12.4445187,9.01403743 C12.3723258,8.38435514 12.1888384,7.93014845 11.8940508,7.65140374 C11.5992632,7.37265903 11.1671151,7.23328877 10.5975936,7.23328877 C9.93582557,7.23328877 9.42747504,7.47493074 9.07252674,7.95822193 C8.71757844,8.44151311 8.5360963,9.1503964 8.52807487,10.084893 L8.52807487,10.8609626 C8.52807487,11.8074914 8.69752504,12.5294093 9.03643048,13.026738 C9.37533592,13.5240667 9.87165449,13.7727273 10.5254011,13.7727273 C11.1229976,13.7727273 11.572191,13.6383703 11.8729947,13.3696524 C12.1737983,13.1009345 12.3643044,12.6537464 12.4445187,12.0280749 L13.9605615,12.0280749 Z" id="C" fill="#8399AF" fill-rule="nonzero"></path>
                        </g>
                        <g id="Group-3" transform="translate(0.000000, 312.000000)">
                            <rect id="Rectangle" x="0" y="0" width="20" height="20"></rect>
                            <path d="M8.246,11.64 C8.234,11.4774 8.228,11.31 8.228,11.136 L8.228,10.41 C8.234,9.54 8.402,8.8794 8.732,8.4294 C9.068,7.974 9.542,7.752 10.16,7.752 C10.688,7.752 11.09,7.884 11.366,8.1414 C11.414,8.19 11.4614,8.244 11.504,8.298 L8.246,11.64 Z M15.2,6 L13.724,6 L12.3854,7.386 C12.374,7.368 12.356,7.3554 12.338,7.338 C11.7854,6.846 11.0594,6.6 10.16,6.6 C9.488,6.6 8.9,6.762 8.384,7.0794 C7.874,7.398 7.484,7.848 7.208,8.436 C6.938,9.024 6.8,9.702 6.8,10.476 L6.8,11.238 C6.812,11.8314 6.896,12.372 7.07,12.846 L5,15 L6.518,15 L7.604,13.842 C7.814,14.118 8.072,14.352 8.372,14.538 C8.864,14.844 9.44,15 10.088,15 C11.024,15 11.768,14.7534 12.332,14.268 C12.89,13.776 13.214,13.098 13.298,12.2274 L11.882,12.2274 C11.804,12.8094 11.63,13.2294 11.348,13.476 C11.066,13.7274 10.646,13.8534 10.088,13.8534 C9.482,13.8534 9.014,13.62 8.702,13.1574 C8.642,13.074 8.588,12.9774 8.54,12.876 L11.906,9.414 L13.298,9.414 C13.256,8.988 13.1594,8.61 13.0094,8.274 L15.2,6 Z" id="Fill-1" fill="#8399AF"></path>
                        </g>
                    </g>
                </g>
            </g>
        </g>
    </g>
</svg>