<svg width="1em" height="1em" viewBox="0 0 24 24" xmlns="http://www.w3.org/2000/svg" fill="currentColor" data-icon="tick" aria-hidden="true">
    <g fill="none" fill-rule="evenodd">
        <path fill-opacity="0" fill="#FFF" d="M0 0h24v24H0z"></path>
        <path d="M18.67 7.928a.7.7 0 01.019.906l-.08.082-8.59 7.608-.021.015-.034.03a.697.697 0 01-.025.017l.08-.062a.703.703 0 01-.278.152l-.034.007a.62.62 0 01-.18.017l-.035-.003a.62.62 0 01-.168-.036.821.821 0 01-.146-.071.634.634 0 01-.03-.02l-.016-.013a.7.7 0 01-.051-.043l-.02-.019-3.556-3.556a.7.7 0 01.903-1.063l.087.073 3.089 3.09 8.098-7.171a.7.7 0 01.988.06z" fill="currentColor" fill-rule="nonzero"></path>
    </g>
</svg>