<svg width="24" height="24" viewBox="0 0 24 24" xmlns="http://www.w3.org/2000/svg">
    <g fill="none" fill-rule="evenodd">
        <path fill="none" d="M0 24h24V0H0z"/>
        <path d="M12 3a9 9 0 1 0 0 18 9 9 0 0 0 0-18z" fill="#0369E9" fill-rule="nonzero"/>
        <path d="M16.269 9.298a.886.886 0 0 1 .033 1.134l-.11.116-4.753 4.21-.044.032-.014.014a.884.884 0 0 1-.012.008l.07-.055a.89.89 0 0 1-.139.101l-.038.02a.716.716 0 0 1-.077.037l-.03.01a.749.749 0 0 1-.098.031l-.012.002a.883.883 0 0 1-.69-.131l-.006-.005-.01-.006a.884.884 0 0 1-.108-.09l-.005-.006-1.967-1.967A.885.885 0 0 1 9.39 11.4l.122.102 1.378 1.378 4.13-3.657a.885.885 0 0 1 1.25.076z" fill="#FFF" fill-rule="nonzero"/>
    </g>
</svg>
