<?xml version="1.0" encoding="UTF-8"?>
<svg width="16px" height="10px" viewBox="0 0 16 10" version="1.1" xmlns="http://www.w3.org/2000/svg" xmlns:xlink="http://www.w3.org/1999/xlink">
    <title>icons/24/view</title>
    <g id="Page-1" stroke="none" stroke-width="1" fill="none" fill-rule="evenodd">
        <g id="Company-Hierarchy-Search-Hover" transform="translate(-244.000000, -351.000000)" fill="#0369E9">
            <g id="Group-7" transform="translate(80.000000, 332.000000)">
                <g id="icons/24/view" transform="translate(162.000000, 14.000000)">
                    <path d="M10,5.3 C11.8923983,5.3 13.7195108,6.14347206 15.4283806,7.53433135 C16.0153696,8.01208521 16.5468993,8.52261394 17.014821,9.03337252 C17.1789256,9.2125004 17.323643,9.37921549 17.4478592,9.52944532 L17.4478592,9.52944532 L17.6056437,9.72625478 C17.7314521,9.89181945 17.7314521,10.1081806 17.6056437,10.2737452 L17.6056437,10.2737452 L17.3508705,10.5862544 C17.2500726,10.7049179 17.1378994,10.8322816 17.014821,10.9666275 C16.5468993,11.4773861 16.0153696,11.9879148 15.4283806,12.4656686 C13.7195108,13.8565279 11.8923983,14.7 10,14.7 C8.1076017,14.7 6.28048918,13.8565279 4.5716194,12.4656686 C3.98463038,11.9879148 3.45310066,11.4773861 2.98517899,10.9666275 C2.82107442,10.7874996 2.67635705,10.6207845 2.55214077,10.4705547 L2.55214077,10.4705547 L2.39435629,10.2737452 C2.2685479,10.1081806 2.2685479,9.89181945 2.39435629,9.72625478 L2.39435629,9.72625478 L2.64912953,9.41374559 C2.74992743,9.29508214 2.86210056,9.16771843 2.98517899,9.03337252 C3.45310066,8.52261394 3.98463038,8.01208521 4.5716194,7.53433135 C6.28048918,6.14347206 8.1076017,5.3 10,5.3 Z M10,6.28208955 C8.4396032,6.28208955 6.84770734,7.0169757 5.32451204,8.25671342 C4.78027829,8.69966852 4.28475476,9.17561367 3.84893732,9.65132897 C3.77283525,9.73439796 3.70138833,9.81440469 3.63475643,9.89083063 L3.63475643,9.89083063 L3.54073196,10 L3.63475643,10.1091694 L3.84893732,10.348671 C4.28475476,10.8243863 4.78027829,11.3003315 5.32451204,11.7432866 C6.84770734,12.9830243 8.4396032,13.7179104 10,13.7179104 C11.5603968,13.7179104 13.1522927,12.9830243 14.675488,11.7432866 C15.2197217,11.3003315 15.7152452,10.8243863 16.1510627,10.348671 C16.2271647,10.265602 16.2986117,10.1855953 16.3652436,10.1091694 L16.3652436,10.1091694 L16.4584742,10 L16.3652436,9.89083063 L16.1510627,9.65132897 C15.7152452,9.17561367 15.2197217,8.69966852 14.675488,8.25671342 C13.1522927,7.0169757 11.5603968,6.28208955 10,6.28208955 Z M10,7.57816716 L10.150358,7.58175002 C11.5939071,7.65072116 12.7402474,8.70683638 12.7402474,9.9997194 C12.7402474,11.3372633 11.5133972,12.4219731 10,12.4219731 C8.48660285,12.4219731 7.25975258,11.3372633 7.25975258,9.9997194 C7.25975258,8.70683638 8.40609292,7.65072116 9.84964196,7.58175002 L10,7.57816716 Z M10,8.56025672 L9.87842166,8.56420451 C9.03550612,8.619149 8.37109278,9.24078693 8.37109278,9.9997194 C8.37109278,10.7949805 9.10050399,11.4398836 10,11.4398836 C10.899496,11.4398836 11.6289072,10.7949805 11.6289072,9.9997194 C11.6289072,9.24078693 10.9644939,8.619149 10.1215783,8.56420451 L10,8.56025672 Z" id="Combined-Shape"></path>
                </g>
            </g>
        </g>
    </g>
</svg>