<svg width="21" height="21" viewBox="0 0 21 21" fill="none" xmlns="http://www.w3.org/2000/svg">
    <path d="M17.5231 0H2.87692C1.28804 0 0 1.28804 0 2.87692V17.5231C0 19.112 1.28804 20.4 2.87692 20.4H17.5231C19.112 20.4 20.4 19.112 20.4 17.5231V2.87692C20.4 1.28804 19.112 0 17.5231 0ZM2.87692 1.56923H17.5231C18.2453 1.56923 18.8308 2.1547 18.8308 2.87692V17.5231C18.8308 18.2453 18.2453 18.8308 17.5231 18.8308H2.87692C2.1547 18.8308 1.56923 18.2453 1.56923 17.5231V2.87692C1.56923 2.1547 2.1547 1.56923 2.87692 1.56923Z" fill="url(#paint0_linear_217_38011)"/>
    <path d="M8.14648 15.5096C9.00014 15.5096 9.72169 15.2027 10.3111 14.5891C10.3721 14.9441 10.4432 15.2002 10.5245 15.3574H12.4148V15.2281C12.2064 14.7869 12.1023 14.1961 12.1023 13.4556V9.74337C12.087 8.86601 11.7923 8.18518 11.2181 7.70086C10.6439 7.21654 9.87413 6.97438 8.90868 6.97438C8.27352 6.97438 7.69806 7.08595 7.18231 7.30909C6.66656 7.53223 6.25878 7.84032 5.95898 8.23336C5.65919 8.62639 5.50929 9.04859 5.50929 9.49994H7.36142C7.36142 9.17537 7.49608 8.90785 7.76539 8.69739C8.0347 8.48693 8.38022 8.38169 8.80197 8.38169C9.28978 8.38169 9.65309 8.50975 9.89191 8.76585C10.1307 9.02196 10.2501 9.36301 10.2501 9.78901V10.3291H9.11447C7.90004 10.3291 6.96635 10.5637 6.31341 11.0328C5.66046 11.5019 5.33398 12.1751 5.33398 13.0525C5.33398 13.7472 5.59567 14.3305 6.11905 14.8021C6.64242 15.2737 7.31823 15.5096 8.14648 15.5096ZM8.48947 14.0262C8.09313 14.0262 7.77682 13.9209 7.54054 13.7105C7.30426 13.5 7.18612 13.2173 7.18612 12.8623C7.18612 12.4261 7.35888 12.0889 7.70441 11.8505C8.04994 11.6122 8.56569 11.493 9.25167 11.493H10.2501V13.0449C10.0875 13.3441 9.84491 13.5824 9.52225 13.7599C9.19958 13.9374 8.85533 14.0262 8.48947 14.0262ZM15.0901 5.96263C15.4254 5.96263 15.6846 5.87008 15.8675 5.68497C16.0504 5.49987 16.1419 5.26785 16.1419 4.98892C16.1419 4.70493 16.0504 4.4691 15.8675 4.28146C15.6846 4.09382 15.4254 4 15.0901 4C14.7547 4 14.4968 4.09382 14.3165 4.28146C14.1361 4.4691 14.0459 4.70493 14.0459 4.98892C14.0459 5.26785 14.1361 5.49987 14.3165 5.68497C14.4968 5.87008 14.7547 5.96263 15.0901 5.96263ZM16.0123 15.3574V7.12652H14.1602V15.3574H16.0123Z" fill="#445F80"/>
    <defs>
        <linearGradient id="paint0_linear_217_38011" x1="3.56665e-07" y1="20.3603" x2="20.4" y2="0.0396821" gradientUnits="userSpaceOnUse">
            <stop stop-color="#D9167A"/>
            <stop offset="0.301479" stop-color="#FA4D55"/>
            <stop offset="0.704504" stop-color="#FE702A"/>
            <stop offset="1" stop-color="#FF9601"/>
        </linearGradient>
    </defs>
</svg>
