<svg width="24" height="24" viewBox="0 0 24 24" fill="none" xmlns="http://www.w3.org/2000/svg">
<path d="M10.7084 5.07737C10.95 4.42441 11.8736 4.42441 12.1152 5.07737L13.8341 9.72281C13.9101 9.9281 14.072 10.09 14.2772 10.1659L18.9227 11.8849C19.5756 12.1265 19.5756 13.05 18.9227 13.2917L14.2772 15.0106C14.072 15.0866 13.9101 15.2485 13.8341 15.4537L12.1152 20.0992C11.8736 20.7521 10.95 20.7521 10.7084 20.0992L8.98943 15.4537C8.91346 15.2485 8.7516 15.0866 8.54632 15.0106L3.90088 13.2917C3.24791 13.05 3.24791 12.1265 3.90088 11.8849L8.54632 10.1659C8.7516 10.09 8.91346 9.9281 8.98943 9.72281L10.7084 5.07737Z" fill="url(#paint0_linear_1_22)"/>
<path d="M18.1699 2.81104C18.273 2.53244 18.6671 2.53244 18.7701 2.81104L19.3722 4.43816C19.4046 4.52575 19.4737 4.59481 19.5613 4.62722L21.1884 5.22931C21.467 5.3324 21.467 5.72644 21.1884 5.82953L19.5613 6.43162C19.4737 6.46403 19.4046 6.53309 19.3722 6.62068L18.7701 8.2478C18.6671 8.5264 18.273 8.5264 18.1699 8.2478L17.5678 6.62068C17.5354 6.53309 17.4664 6.46403 17.3788 6.43162L15.7517 5.82953C15.4731 5.72644 15.4731 5.3324 15.7517 5.22931L17.3788 4.62722C17.4664 4.59481 17.5354 4.52575 17.5678 4.43816L18.1699 2.81104Z" fill="url(#paint1_linear_1_22)"/>
<defs>
<linearGradient id="paint0_linear_1_22" x1="15.889" y1="5.33342" x2="5.88891" y2="18.6668" gradientUnits="userSpaceOnUse">
<stop stop-color="#55ADFF"/>
<stop offset="0.489583" stop-color="#B972FF"/>
<stop offset="1" stop-color="#FF8F6B"/>
</linearGradient>
<linearGradient id="paint1_linear_1_22" x1="20.149" y1="2.80885" x2="16.399" y2="7.80887" gradientUnits="userSpaceOnUse">
<stop stop-color="#55ADFF"/>
<stop offset="0.489583" stop-color="#B972FF"/>
<stop offset="1" stop-color="#FF8F6B"/>
</linearGradient>
</defs>
</svg>
