<?xml version="1.0" encoding="UTF-8"?>
<svg width="24px" height="24px" viewBox="0 0 24 24" version="1.1" xmlns="http://www.w3.org/2000/svg" xmlns:xlink="http://www.w3.org/1999/xlink">
    <g id="Page-1" stroke="none" stroke-width="1" fill="none" fill-rule="evenodd">
        <g id="Tab_Navigation_6" transform="translate(-858.000000, -338.000000)">
            <g id="Manage-Sections" transform="translate(534.000000, 175.000000)">
                <g id="active-pin" transform="translate(324.000000, 163.000000)">
                    <rect id="Rectangle" x="0" y="0" width="24" height="24"></rect>
                    <g id="push-pin-2" transform="translate(4.000000, 4.000000)" fill="#3E5872" fill-rule="nonzero">
                        <path d="M3.06149607,7.77471604 L8.22528396,12.9385039 C8.54775187,13.2609718 9.07063646,13.2609718 9.39310438,12.9385039 C9.5480879,12.7836548 9.63505612,12.5734256 9.63505612,12.3543249 L9.63505612,9.66839169 L14.5902278,4.71321997 L15.0031588,5.12615095 C15.2312655,5.35412326 15.600914,5.35412326 15.8290208,5.12615095 C16.0569931,4.89804423 16.0569931,4.52839572 15.8290208,4.300289 L11.699711,0.170979232 C11.4716043,-0.0569930775 11.1019558,-0.0569930775 10.873849,0.170979232 C10.6458767,0.399085951 10.6458767,0.768734467 10.873849,0.996841186 L11.28678,1.40977216 L6.33160831,6.36494388 L3.6456751,6.36494388 C3.42657437,6.36494388 3.21634518,6.4519121 3.06149607,6.60689562 C2.73902815,6.92936354 2.73902815,7.45211372 3.06149607,7.77471604 Z" id="Path"></path>
                        <path d="M6.05632099,10.769541 L1.90362254,14.9222394 C1.37845286,15.4474091 0.720478527,15.8198804 -1.67865721e-13,16 C0.180119632,15.2795215 0.552590909,14.6215471 1.07776058,14.0963775 L5.23045904,9.94367901 L6.05632099,10.769541 Z" id="Path"></path>
                    </g>
                </g>
            </g>
        </g>
    </g>
</svg>