<?xml version="1.0" encoding="UTF-8"?>
<svg width="18px" height="20px" viewBox="0 0 18 20" version="1.1" xmlns="http://www.w3.org/2000/svg" xmlns:xlink="http://www.w3.org/1999/xlink">
    <!-- Generator: Sketch 63.1 (92452) - https://sketch.com -->
    <title>Group 8</title>
    <desc>Created with Sketch.</desc>
    <g id="Page-1" stroke="none" stroke-width="1" fill="none" fill-rule="evenodd">
        <g id="2-Full-Page-Models-Copy-21" transform="translate(-152.000000, -419.000000)">
            <g id="Group-8" transform="translate(149.000000, 417.000000)">
                <g id="ppt-copy-13" transform="translate(3.100000, 2.000000)" fill-rule="nonzero">
                    <path d="M3.51851852,0 C2.80555556,0 2.22222222,0.5625 2.22222222,1.25 L2.22222222,18.75 C2.22222222,19.4375 2.80555556,20 3.51851852,20 L16.4814815,20 C17.1944444,20 17.7777778,19.4375 17.7777778,18.75 L17.7777778,5 L12.5925926,0 L3.51851852,0 Z" id="Path" fill="#E2E5E7"></path>
                    <path d="M14.4444444,4.44444444 L17.7777778,4.44444444 L13.3333333,0 L13.3333333,3.33333333 C13.3333333,3.94444444 13.8333333,4.44444444 14.4444444,4.44444444 Z" id="Path" fill="#B0B7BD"></path>
                    <polygon id="Path" fill="#CAD1D8" points="17.7777778 8.88888889 13.3333333 4.44444444 17.7777778 4.44444444"></polygon>
                    <path d="M15.5555556,16.1111111 C15.5555556,16.4166667 15.2638889,16.6666667 14.9074074,16.6666667 L0.648148148,16.6666667 C0.291666667,16.6666667 0,16.4166667 0,16.1111111 L0,10.5555556 C0,10.25 0.291666667,10 0.648148148,10 L14.9074074,10 C15.2638889,10 15.5555556,10.25 15.5555556,10.5555556 L15.5555556,16.1111111 Z" id="Path" fill="#F15642"></path>
                    <g id="Group" transform="translate(3.333333, 11.111111)" fill="#FFFFFF">
                        <path d="M0.0186885246,0.446984127 C0.0186885246,0.240683761 0.155081967,0.0156288156 0.374754098,0.0156288156 L1.58590164,0.0156288156 C2.26786885,0.0156288156 2.88163934,0.5595116 2.88163934,1.6019536 C2.88163934,2.58969475 2.26786885,3.13982906 1.58590164,3.13982906 L0.710491803,3.13982906 L0.710491803,3.96503053 C0.710491803,4.24009768 0.564262295,4.3956044 0.375409836,4.3956044 C0.202295082,4.3956044 0.0193442623,4.24009768 0.0193442623,3.96503053 L0.0193442623,0.446984127 L0.0186885246,0.446984127 L0.0186885246,0.446984127 Z M0.710491803,0.802539683 L0.710491803,2.35916972 L1.58590164,2.35916972 C1.93737705,2.35916972 2.21540984,1.98954823 2.21540984,1.6019536 C2.21540984,1.16512821 1.93737705,0.802539683 1.58590164,0.802539683 L0.710491803,0.802539683 Z" id="Shape"></path>
                        <path d="M3.54983607,0.446984127 C3.54983607,0.240683761 3.68622951,0.0156288156 3.90655738,0.0156288156 L5.11770492,0.0156288156 C5.79967213,0.0156288156 6.41344262,0.5595116 6.41344262,1.6019536 C6.41344262,2.58969475 5.79967213,3.13982906 5.11770492,3.13982906 L4.24229508,3.13982906 L4.24229508,3.96503053 C4.24229508,4.24009768 4.09540984,4.3956044 3.90655738,4.3956044 C3.73344262,4.3956044 3.54983607,4.24009768 3.54983607,3.96503053 L3.54983607,0.446984127 L3.54983607,0.446984127 Z M4.24163934,0.802539683 L4.24163934,2.35916972 L5.11704918,2.35916972 C5.46852459,2.35916972 5.74655738,1.98954823 5.74655738,1.6019536 C5.74655738,1.16512821 5.46852459,0.802539683 5.11704918,0.802539683 L4.24163934,0.802539683 Z" id="Shape"></path>
                        <path d="M8.06065574,0.853333333 L7.14393443,0.853333333 C6.68754098,0.853333333 6.68754098,0.0539194139 7.14393443,0.0539194139 L9.62327869,0.0539194139 C10.0901639,0.0539194139 10.0901639,0.853333333 9.62327869,0.853333333 L8.75311475,0.853333333 L8.75311475,4.00879121 C8.75311475,4.55189255 8.06065574,4.56517705 8.06065574,4.00879121 L8.06065574,0.853333333 Z" id="Path"></path>
                    </g>
                    <path d="M14.8888889,17.2222222 L2.22222222,17.2222222 L2.22222222,17.7777778 L14.8888889,17.7777778 C15.2555556,17.7777778 15.5555556,17.5277778 15.5555556,17.2222222 L15.5555556,16.6666667 C15.5555556,16.9722222 15.2555556,17.2222222 14.8888889,17.2222222 Z" id="Path" fill="#CAD1D8"></path>
                </g>
                <rect id="Rectangle" x="0" y="0" width="24" height="24"></rect>
            </g>
        </g>
    </g>
</svg>
