<?xml version="1.0" encoding="UTF-8"?>
<svg width="220px" height="120px" viewBox="0 0 220 120" version="1.1" xmlns="http://www.w3.org/2000/svg" xmlns:xlink="http://www.w3.org/1999/xlink">
    <!-- Generator: Sketch 56.3 (81716) - https://sketch.com -->
    <title>Group 18</title>
    <desc>Created with Sketch.</desc>
    <defs>
        <linearGradient x1="50.2871541%" y1="35.3323103%" x2="50.2871541%" y2="99.8916299%" id="linearGradient-1">
            <stop stop-color="#FFEB8A" offset="0%"></stop>
            <stop stop-color="#FFD85D" offset="100%"></stop>
        </linearGradient>
        <linearGradient x1="50.0373165%" y1="0%" x2="50.0373165%" y2="99.7945306%" id="linearGradient-2">
            <stop stop-color="#FFD194" offset="0%"></stop>
            <stop stop-color="#FFC089" offset="100%"></stop>
        </linearGradient>
        <linearGradient x1="50.2871541%" y1="-0.0725492537%" x2="50.2871541%" y2="99.8916299%" id="linearGradient-3">
            <stop stop-color="#FFEE9B" offset="0%"></stop>
            <stop stop-color="#FFE491" offset="100%"></stop>
        </linearGradient>
    </defs>
    <g id="Final" stroke="none" stroke-width="1" fill="none" fill-rule="evenodd">
        <g id="4" transform="translate(-610.000000, -269.000000)">
            <g id="Group-18" transform="translate(610.000000, 269.000000)">
                <g id="Group" transform="translate(147.910000, 24.319000)" fill-rule="nonzero">
                    <polygon id="Path" fill="url(#linearGradient-1)" points="2.4 12.4 32.1 12.4 32.1 23.9 21.3 23.9 15.2 31.1 23.1 65.5 2.4 65.5"></polygon>
                    <polygon id="Path" fill="url(#linearGradient-2)" points="69.4 11.5 64.9 11.5 65.4 6.9 63.9 1.4 44.5 1.4 43.5 6.6 43.7 11.5 39.7 11.5 39.7 23.4 50.5 23.4 56.6 30.1 48.6 65.1 69.4 65.1"></polygon>
                    <polygon id="Path" fill="#8FCBFD" points="20.8 24.3 50.9 24.3 56 30.9 16.2 30.9"></polygon>
                    <path d="M69.4,65 L69.4,9.3 L67.1,9.3 L67.1,4.6 L64.8,4.6 L64.8,0 L44,0 L44,4.6 L41.7,4.6 L41.7,9.2 L39.4,9.2 L39.4,23.1 L34.2,23.1 L32.3,11.5 L25.5,11.5 L25.5,4.6 L18.6,4.6 L18.6,11.5 L11.7,11.5 L11.7,4.6 L4.6,4.6 L4.6,11.5 L2.3,11.5 L2.3,65 C1,65.5 0,66.8 0,68.3 L0,71.8 L71.8,71.8 L71.8,68.3 C71.8,66.8 70.8,65.5 69.4,65 Z M46.3,2.3 L62.5,2.3 L62.5,4.6 L46.3,4.6 L46.3,2.3 L46.3,2.3 Z M44,6.9 L64.8,6.9 L64.8,9.2 L44,9.2 L44,6.9 L44,6.9 Z M41.7,11.6 L67.2,11.6 L67.2,64.8 L50.1,64.8 L55.5,41.7 L62.5,41.7 L62.5,34.8 L57.1,34.8 L57.9,31.3 L62.5,31.3 L62.5,24.4 L55.6,24.4 L55.6,28.1 L51.5,23.2 L41.7,23.2 L41.7,11.6 L41.7,11.6 Z M44,64.8 L39.4,64.8 L39.4,57.9 L44,57.9 L44,64.8 Z M37,55.6 L37,64.9 L34.7,64.9 L34.7,55.6 L25.4,55.6 L25.4,64.9 L24,64.9 L16.4,32.5 L55.2,32.5 L47.6,64.9 L46.2,64.9 L46.2,55.6 L37,55.6 L37,55.6 Z M32.4,64.8 L27.8,64.8 L27.8,57.9 L32.4,57.9 L32.4,64.8 Z M57.9,28.9 L57.9,26.6 L60.2,26.6 L60.2,28.9 L57.9,28.9 Z M56.6,37 L60.2,37 L60.2,39.3 L56,39.3 L56.6,37 Z M21.4,25.5 L50.4,25.5 L54.3,30.1 L17.5,30.1 L21.4,25.5 Z M25.5,23.1 L20.3,23.1 L18.5,25.2 L18.5,18.4 L25.4,18.4 L25.4,23.1 L25.5,23.1 Z M16.2,23.1 L9.3,23.1 L9.3,18.5 L16.2,18.5 L16.2,23.1 Z M9.3,25.5 L16.2,25.5 L16.2,28.1 L14.5,30.1 L9.3,30.1 L9.3,25.5 L9.3,25.5 Z M9.3,32.4 L14.2,32.4 L15.3,37 L9.3,37 L9.3,32.4 Z M9.3,39.4 L15.8,39.4 L16.3,41.4 L16.3,44 L9.3,44 L9.3,39.4 L9.3,39.4 Z M9.3,46.3 L16.2,46.3 L16.2,50.9 L9.3,50.9 L9.3,46.3 Z M9.3,53.2 L16.2,53.2 L16.2,57.8 L9.3,57.8 L9.3,53.2 Z M9.3,60.2 L16.2,60.2 L16.2,64.8 L9.3,64.8 L9.3,60.2 Z M18.5,51.2 L21.7,64.8 L18.5,64.8 L18.5,51.2 Z M20.8,6.9 L23.1,6.9 L23.1,11.5 L20.8,11.5 L20.8,6.9 Z M6.9,6.9 L9.2,6.9 L9.2,11.5 L6.9,11.5 L6.9,6.9 L6.9,6.9 Z M30.3,13.9 L31.9,23.2 L27.9,23.2 L27.9,16.3 L6.9,16.3 L6.9,64.9 L4.6,64.9 L4.6,13.9 L30.3,13.9 Z M69.4,69.4 L2.3,69.4 L2.3,68.2 C2.3,67.6 2.8,67 3.5,67 L68.3,67 C68.9,67 69.5,67.5 69.5,68.2 L69.5,69.4 L69.4,69.4 Z" id="Shape" fill="#5788BA"></path>
                    <path d="M53.2,13.9 L46.3,13.9 L46.3,20.8 L53.2,20.8 L53.2,13.9 Z M50.9,18.5 L48.6,18.5 L48.6,16.2 L50.9,16.2 L50.9,18.5 Z" id="Shape" fill="#6285A9"></path>
                    <path d="M62.5,13.9 L55.6,13.9 L55.6,20.8 L62.5,20.8 L62.5,13.9 Z M60.2,18.5 L57.9,18.5 L57.9,16.2 L60.2,16.2 L60.2,18.5 Z" id="Shape" fill="#6285A9"></path>
                    <path d="M55.6,52.1 L62.5,52.1 L62.5,45.2 L55.6,45.2 L55.6,52.1 Z M57.9,47.5 L60.2,47.5 L60.2,49.8 L57.9,49.8 L57.9,47.5 Z" id="Shape" fill="#6285A9"></path>
                    <path d="M55.6,62.5 L62.5,62.5 L62.5,55.6 L55.6,55.6 L55.6,62.5 Z M57.9,57.9 L60.2,57.9 L60.2,60.2 L57.9,60.2 L57.9,57.9 Z" id="Shape" fill="#6285A9"></path>
                    <path d="M48.6,34.7 L23.1,34.7 L23.1,41.6 L48.6,41.6 L48.6,34.7 Z M34.7,37 L37,37 L37,39.3 L34.7,39.3 L34.7,37 Z M32.4,39.4 L30.1,39.4 L30.1,37 L32.4,37 L32.4,39.4 Z M39.4,37 L41.7,37 L41.7,39.3 L39.4,39.3 L39.4,37 Z M25.5,37 L27.8,37 L27.8,39.3 L25.5,39.3 L25.5,37 Z M46.3,39.4 L44,39.4 L44,37 L46.3,37 L46.3,39.4 Z" id="Shape" fill="#6A8DB1"></path>
                    <path d="M48.6,44 L23.1,44 L23.1,50.9 L48.6,50.9 L48.6,44 Z M34.7,46.3 L37,46.3 L37,48.6 L34.7,48.6 L34.7,46.3 Z M32.4,48.6 L30.1,48.6 L30.1,46.3 L32.4,46.3 L32.4,48.6 Z M39.4,46.3 L41.7,46.3 L41.7,48.6 L39.4,48.6 L39.4,46.3 Z M25.5,46.3 L27.8,46.3 L27.8,48.6 L25.5,48.6 L25.5,46.3 Z M46.3,48.6 L44,48.6 L44,46.3 L46.3,46.3 L46.3,48.6 Z" id="Shape" fill="#6A8DB1"></path>
                </g>
                <rect id="Rectangle" fill="url(#linearGradient-3)" fill-rule="nonzero" x="17.1" y="9.6" width="27.9" height="33.5"></rect>
                <rect id="Rectangle" fill="url(#linearGradient-3)" fill-rule="nonzero" x="17.1" y="81.3" width="27.9" height="33.5"></rect>
                <path d="M17.1,39.9 L17.1,43.9 L61,43.9 L61,39.9 C71.3,40.8 78.1,42.2 78.1,43.9 C78.1,46.5 60.6,48.7 39,48.7 C17.4,48.7 1.84741111e-13,46.5 1.84741111e-13,43.9 C1.84741111e-13,42.2 6.8,40.8 17.1,39.9 Z" id="Path" fill="#EEF4FA" fill-rule="nonzero"></path>
                <path d="M17.1,111.2 L17.1,115.2 L61,115.2 L61,111.2 C71.3,112.1 78.1,113.5 78.1,115.2 C78.1,117.8 60.6,120 39,120 C17.4,120 1.84741111e-13,117.8 1.84741111e-13,115.2 C1.84741111e-13,113.5 6.8,112.1 17.1,111.2 Z" id="Path" fill="#EEF4FA" fill-rule="nonzero"></path>
                <g id="Group" transform="translate(17.143000, 0.000000)" fill="#5788BA" fill-rule="nonzero">
                    <path d="M6.6,11 L3.7,11 C3.3,11 3,11.3 3,11.7 L3,14.6 C3,15 3.3,15.3 3.7,15.3 L6.6,15.3 C7,15.3 7.3,15 7.3,14.6 L7.3,11.7 C7.3,11.3 7,11 6.6,11 Z M5.8,13.9 L4.4,13.9 L4.4,12.4 L5.9,12.4 L5.9,13.9 L5.8,13.9 Z" id="Shape"></path>
                    <path d="M15.3,11 L12.4,11 C12,11 11.7,11.3 11.7,11.7 L11.7,14.6 C11.7,15 12,15.3 12.4,15.3 L15.3,15.3 C15.7,15.3 16,15 16,14.6 L16,11.7 C16.1,11.3 15.8,11 15.3,11 Z M14.6,13.9 L13.1,13.9 L13.1,12.4 L14.6,12.4 L14.6,13.9 Z" id="Shape"></path>
                    <path d="M24.1,11 L21.2,11 C20.8,11 20.5,11.3 20.5,11.7 L20.5,14.6 C20.5,15 20.8,15.3 21.2,15.3 L24.1,15.3 C24.5,15.3 24.8,15 24.8,14.6 L24.8,11.7 C24.9,11.3 24.5,11 24.1,11 Z M23.4,13.9 L21.9,13.9 L21.9,12.4 L23.4,12.4 L23.4,13.9 Z" id="Shape"></path>
                    <path d="M6.6,19 L3.7,19 C3.3,19 3,19.3 3,19.7 L3,22.6 C3,23 3.3,23.3 3.7,23.3 L6.6,23.3 C7,23.3 7.3,23 7.3,22.6 L7.3,19.7 C7.3,19.3 7,19 6.6,19 Z M5.8,21.9 L4.4,21.9 L4.4,20.4 L5.9,20.4 L5.9,21.9 L5.8,21.9 Z" id="Shape"></path>
                    <path d="M15.3,19 L12.4,19 C12,19 11.7,19.3 11.7,19.7 L11.7,22.6 C11.7,23 12,23.3 12.4,23.3 L15.3,23.3 C15.7,23.3 16,23 16,22.6 L16,19.7 C16.1,19.3 15.8,19 15.3,19 Z M14.6,21.9 L13.1,21.9 L13.1,20.4 L14.6,20.4 L14.6,21.9 Z" id="Shape"></path>
                    <path d="M24.1,19 L21.2,19 C20.8,19 20.5,19.3 20.5,19.7 L20.5,22.6 C20.5,23 20.8,23.3 21.2,23.3 L24.1,23.3 C24.5,23.3 24.8,23 24.8,22.6 L24.8,19.7 C24.9,19.3 24.5,19 24.1,19 Z M23.4,21.9 L21.9,21.9 L21.9,20.4 L23.4,20.4 L23.4,21.9 Z" id="Shape"></path>
                    <path d="M6.6,27 L3.7,27 C3.3,27 3,27.3 3,27.7 L3,30.6 C3,31 3.3,31.3 3.7,31.3 L6.6,31.3 C7,31.3 7.3,31 7.3,30.6 L7.3,27.7 C7.3,27.4 7,27 6.6,27 Z M5.8,30 L4.4,30 L4.4,28.5 L5.9,28.5 L5.9,30 L5.8,30 Z" id="Shape"></path>
                    <path d="M15.3,27 L12.4,27 C12,27 11.7,27.3 11.7,27.7 L11.7,30.6 C11.7,31 12,31.3 12.4,31.3 L15.3,31.3 C15.7,31.3 16,31 16,30.6 L16,27.7 C16.1,27.4 15.8,27 15.3,27 Z M14.6,30 L13.1,30 L13.1,28.5 L14.6,28.5 L14.6,30 Z" id="Shape"></path>
                    <path d="M24.1,27 L21.2,27 C20.8,27 20.5,27.3 20.5,27.7 L20.5,30.6 C20.5,31 20.8,31.3 21.2,31.3 L24.1,31.3 C24.5,31.3 24.8,31 24.8,30.6 L24.8,27.7 C24.9,27.4 24.5,27 24.1,27 Z M23.4,30 L21.9,30 L21.9,28.5 L23.4,28.5 L23.4,30 Z" id="Shape"></path>
                    <path d="M6.6,35.1 L3.7,35.1 C3.3,35.1 3,35.4 3,35.8 L3,38.7 C3,39.1 3.3,39.4 3.7,39.4 L6.6,39.4 C7,39.4 7.3,39.1 7.3,38.7 L7.3,35.8 C7.3,35.4 7,35.1 6.6,35.1 Z M5.8,38 L4.4,38 L4.4,36.5 L5.9,36.5 L5.9,38 L5.8,38 Z" id="Shape"></path>
                    <path d="M24.1,35.1 L21.2,35.1 C20.8,35.1 20.5,35.4 20.5,35.8 L20.5,38.7 C20.5,39.1 20.8,39.4 21.2,39.4 L24.1,39.4 C24.5,39.4 24.8,39.1 24.8,38.7 L24.8,35.8 C24.9,35.4 24.5,35.1 24.1,35.1 Z M23.4,38 L21.9,38 L21.9,36.5 L23.4,36.5 L23.4,38 Z" id="Shape"></path>
                    <path d="M43.1,18.3 L27.7,18.3 L27.7,8.8 C27.8,8.4 27.4,8 27,8 L26.3,8 L26.3,5.8 C26.3,5.4 26,5.1 25.6,5.1 L23.4,5.1 L23.4,0.7 C23.4,0.3 23.1,-6.66133815e-16 22.7,-6.66133815e-16 L5.1,-6.66133815e-16 C4.7,-6.66133815e-16 4.4,0.3 4.4,0.7 L4.4,5.1 L2.2,5.1 C1.8,5.1 1.5,5.4 1.5,5.8 L1.5,8 L0.7,8 C0.3,8 4.6629367e-15,8.4 4.6629367e-15,8.8 L4.6629367e-15,43.2 C4.6629367e-15,43.6 0.3,43.9 0.7,43.9 L43.1,43.9 C43.5,43.9 43.8,43.6 43.8,43.2 L43.8,19 C43.9,18.6 43.5,18.3 43.1,18.3 Z M5.8,1.5 L21.9,1.5 L21.9,5.2 L5.8,5.2 L5.8,1.5 Z M2.9,6.6 L24.8,6.6 L24.8,8 L2.9,8 L2.9,6.6 Z M13.2,42.4 L10.3,42.4 L10.3,37.1 C10.3,36.4 10.9,35.8 11.6,35.8 L13.2,35.8 L13.2,42.4 L13.2,42.4 Z M17.5,42.4 L14.6,42.4 L14.6,35.8 L16.2,35.8 C16.9,35.8 17.5,36.4 17.5,37.1 L17.5,42.4 L17.5,42.4 Z M26.3,42.4 L19,42.4 L19,37.1 C19,35.6 17.8,34.3 16.2,34.3 L11.5,34.3 C10,34.3 8.7,35.5 8.7,37.1 L8.7,42.4 L1.5,42.4 L1.5,9.5 L26.4,9.5 L26.4,42.4 L26.3,42.4 Z M37.3,42.4 L32.9,42.4 L32.9,38.4 C32.9,37.8 33.4,37.2 34.1,37.2 L36.2,37.2 C36.8,37.2 37.4,37.7 37.4,38.4 L37.4,42.4 L37.3,42.4 Z M42.4,42.4 L38.7,42.4 L38.7,38.4 C38.7,37 37.5,35.8 36.1,35.8 L34,35.8 C32.6,35.8 31.4,37 31.4,38.4 L31.4,42.4 L27.7,42.4 L27.7,19.7 L42.3,19.7 L42.3,42.4 L42.4,42.4 Z" id="Shape"></path>
                    <path d="M37.3,21.2 L32.9,21.2 C32.5,21.2 32.2,21.5 32.2,21.9 L32.2,26.3 C32.2,26.7 32.5,27 32.9,27 L37.3,27 C37.7,27 38,26.7 38,26.3 L38,21.9 C38,21.5 37.7,21.2 37.3,21.2 Z M36.5,25.6 L33.6,25.6 L33.6,22.7 L36.5,22.7 L36.5,25.6 Z" id="Shape"></path>
                    <path d="M37.3,28.5 L32.9,28.5 C32.5,28.5 32.2,28.8 32.2,29.2 L32.2,33.6 C32.2,34 32.5,34.3 32.9,34.3 L37.3,34.3 C37.7,34.3 38,34 38,33.6 L38,29.2 C38,28.8 37.7,28.5 37.3,28.5 L37.3,28.5 Z M36.5,32.9 L33.6,32.9 L33.6,30 L36.5,30 L36.5,32.9 Z" id="Shape"></path>
                </g>
                <g id="Group" transform="translate(17.143000, 71.761000)" fill="#5788BA" fill-rule="nonzero">
                    <path d="M6.6,11 L3.7,11 C3.3,11 3,11.3 3,11.7 L3,14.6 C3,15 3.3,15.3 3.7,15.3 L6.6,15.3 C7,15.3 7.3,15 7.3,14.6 L7.3,11.7 C7.3,11.3 7,11 6.6,11 Z M5.8,13.9 L4.4,13.9 L4.4,12.4 L5.9,12.4 L5.9,13.9 L5.8,13.9 Z" id="Shape"></path>
                    <path d="M15.3,11 L12.4,11 C12,11 11.7,11.3 11.7,11.7 L11.7,14.6 C11.7,15 12,15.3 12.4,15.3 L15.3,15.3 C15.7,15.3 16,15 16,14.6 L16,11.7 C16.1,11.3 15.8,11 15.3,11 Z M14.6,13.9 L13.1,13.9 L13.1,12.4 L14.6,12.4 L14.6,13.9 Z" id="Shape"></path>
                    <path d="M24.1,11 L21.2,11 C20.8,11 20.5,11.3 20.5,11.7 L20.5,14.6 C20.5,15 20.8,15.3 21.2,15.3 L24.1,15.3 C24.5,15.3 24.8,15 24.8,14.6 L24.8,11.7 C24.9,11.3 24.5,11 24.1,11 Z M23.4,13.9 L21.9,13.9 L21.9,12.4 L23.4,12.4 L23.4,13.9 Z" id="Shape"></path>
                    <path d="M6.6,19 L3.7,19 C3.3,19 3,19.3 3,19.7 L3,22.6 C3,23 3.3,23.3 3.7,23.3 L6.6,23.3 C7,23.3 7.3,23 7.3,22.6 L7.3,19.7 C7.3,19.3 7,19 6.6,19 Z M5.8,21.9 L4.4,21.9 L4.4,20.4 L5.9,20.4 L5.9,21.9 L5.8,21.9 Z" id="Shape"></path>
                    <path d="M15.3,19 L12.4,19 C12,19 11.7,19.3 11.7,19.7 L11.7,22.6 C11.7,23 12,23.3 12.4,23.3 L15.3,23.3 C15.7,23.3 16,23 16,22.6 L16,19.7 C16.1,19.3 15.8,19 15.3,19 Z M14.6,21.9 L13.1,21.9 L13.1,20.4 L14.6,20.4 L14.6,21.9 Z" id="Shape"></path>
                    <path d="M24.1,19 L21.2,19 C20.8,19 20.5,19.3 20.5,19.7 L20.5,22.6 C20.5,23 20.8,23.3 21.2,23.3 L24.1,23.3 C24.5,23.3 24.8,23 24.8,22.6 L24.8,19.7 C24.9,19.3 24.5,19 24.1,19 Z M23.4,21.9 L21.9,21.9 L21.9,20.4 L23.4,20.4 L23.4,21.9 Z" id="Shape"></path>
                    <path d="M6.6,27 L3.7,27 C3.3,27 3,27.3 3,27.7 L3,30.6 C3,31 3.3,31.3 3.7,31.3 L6.6,31.3 C7,31.3 7.3,31 7.3,30.6 L7.3,27.7 C7.3,27.4 7,27 6.6,27 Z M5.8,30 L4.4,30 L4.4,28.5 L5.9,28.5 L5.9,30 L5.8,30 Z" id="Shape"></path>
                    <path d="M15.3,27 L12.4,27 C12,27 11.7,27.3 11.7,27.7 L11.7,30.6 C11.7,31 12,31.3 12.4,31.3 L15.3,31.3 C15.7,31.3 16,31 16,30.6 L16,27.7 C16.1,27.4 15.8,27 15.3,27 Z M14.6,30 L13.1,30 L13.1,28.5 L14.6,28.5 L14.6,30 Z" id="Shape"></path>
                    <path d="M24.1,27 L21.2,27 C20.8,27 20.5,27.3 20.5,27.7 L20.5,30.6 C20.5,31 20.8,31.3 21.2,31.3 L24.1,31.3 C24.5,31.3 24.8,31 24.8,30.6 L24.8,27.7 C24.9,27.4 24.5,27 24.1,27 Z M23.4,30 L21.9,30 L21.9,28.5 L23.4,28.5 L23.4,30 Z" id="Shape"></path>
                    <path d="M6.6,35.1 L3.7,35.1 C3.3,35.1 3,35.4 3,35.8 L3,38.7 C3,39.1 3.3,39.4 3.7,39.4 L6.6,39.4 C7,39.4 7.3,39.1 7.3,38.7 L7.3,35.8 C7.3,35.4 7,35.1 6.6,35.1 Z M5.8,38 L4.4,38 L4.4,36.5 L5.9,36.5 L5.9,38 L5.8,38 Z" id="Shape"></path>
                    <path d="M24.1,35.1 L21.2,35.1 C20.8,35.1 20.5,35.4 20.5,35.8 L20.5,38.7 C20.5,39.1 20.8,39.4 21.2,39.4 L24.1,39.4 C24.5,39.4 24.8,39.1 24.8,38.7 L24.8,35.8 C24.9,35.4 24.5,35.1 24.1,35.1 Z M23.4,38 L21.9,38 L21.9,36.5 L23.4,36.5 L23.4,38 Z" id="Shape"></path>
                    <path d="M43.1,18.3 L27.7,18.3 L27.7,8.8 C27.8,8.4 27.4,8 27,8 L26.3,8 L26.3,5.8 C26.3,5.4 26,5.1 25.6,5.1 L23.4,5.1 L23.4,0.7 C23.4,0.3 23.1,-6.66133815e-16 22.7,-6.66133815e-16 L5.1,-6.66133815e-16 C4.7,-6.66133815e-16 4.4,0.3 4.4,0.7 L4.4,5.1 L2.2,5.1 C1.8,5.1 1.5,5.4 1.5,5.8 L1.5,8 L0.7,8 C0.3,8 4.6629367e-15,8.4 4.6629367e-15,8.8 L4.6629367e-15,43.2 C4.6629367e-15,43.6 0.3,43.9 0.7,43.9 L43.1,43.9 C43.5,43.9 43.8,43.6 43.8,43.2 L43.8,19 C43.9,18.6 43.5,18.3 43.1,18.3 Z M5.8,1.5 L21.9,1.5 L21.9,5.2 L5.8,5.2 L5.8,1.5 Z M2.9,6.6 L24.8,6.6 L24.8,8 L2.9,8 L2.9,6.6 Z M13.2,42.4 L10.3,42.4 L10.3,37.1 C10.3,36.4 10.9,35.8 11.6,35.8 L13.2,35.8 L13.2,42.4 L13.2,42.4 Z M17.5,42.4 L14.6,42.4 L14.6,35.8 L16.2,35.8 C16.9,35.8 17.5,36.4 17.5,37.1 L17.5,42.4 L17.5,42.4 Z M26.3,42.4 L19,42.4 L19,37.1 C19,35.6 17.8,34.3 16.2,34.3 L11.5,34.3 C10,34.3 8.7,35.5 8.7,37.1 L8.7,42.4 L1.5,42.4 L1.5,9.5 L26.4,9.5 L26.4,42.4 L26.3,42.4 Z M37.3,42.4 L32.9,42.4 L32.9,38.4 C32.9,37.8 33.4,37.2 34.1,37.2 L36.2,37.2 C36.8,37.2 37.4,37.7 37.4,38.4 L37.4,42.4 L37.3,42.4 Z M42.4,42.4 L38.7,42.4 L38.7,38.4 C38.7,37 37.5,35.8 36.1,35.8 L34,35.8 C32.6,35.8 31.4,37 31.4,38.4 L31.4,42.4 L27.7,42.4 L27.7,19.7 L42.3,19.7 L42.3,42.4 L42.4,42.4 Z" id="Shape"></path>
                    <path d="M37.3,21.2 L32.9,21.2 C32.5,21.2 32.2,21.5 32.2,21.9 L32.2,26.3 C32.2,26.7 32.5,27 32.9,27 L37.3,27 C37.7,27 38,26.7 38,26.3 L38,21.9 C38,21.5 37.7,21.2 37.3,21.2 Z M36.5,25.6 L33.6,25.6 L33.6,22.7 L36.5,22.7 L36.5,25.6 Z" id="Shape"></path>
                    <path d="M37.3,28.5 L32.9,28.5 C32.5,28.5 32.2,28.8 32.2,29.2 L32.2,33.6 C32.2,34 32.5,34.3 32.9,34.3 L37.3,34.3 C37.7,34.3 38,34 38,33.6 L38,29.2 C38,28.8 37.7,28.5 37.3,28.5 L37.3,28.5 Z M36.5,32.9 L33.6,32.9 L33.6,30 L36.5,30 L36.5,32.9 Z" id="Shape"></path>
                </g>
                <path d="M67.6,31.1 C84.1,29.3 95.7,40.3 102.3,64.3" id="Path" stroke="#3E94DB" stroke-width="3" stroke-linecap="round"></path>
                <path d="M67.6,97.4 C84.1,99.2 95.7,88.2 102.3,64.2" id="Path" stroke="#3E94DB" stroke-width="3" stroke-linecap="round"></path>
                <path d="M102.3,64.3 L138.4,64.3" id="Path" stroke="#3E94DB" stroke-width="3" stroke-linecap="round"></path>
                <path d="M138.4,64.3 L133.6,69.1" id="Path" stroke="#3E94DB" stroke-width="3" stroke-linecap="round"></path>
                <path d="M138.4,64.3 L133.6,59.5" id="Path" stroke="#3E94DB" stroke-width="3" stroke-linecap="round"></path>
            </g>
        </g>
    </g>
</svg>