<svg width="220px" height="120px" viewBox="0 0 220 120" xmlns="http://www.w3.org/2000/svg"><title>Merge companies</title><defs><linearGradient x1="50%" y1="0%" x2="50%" y2="100%" id="a"><stop stop-color="#FFEE9B" offset="0%"/><stop stop-color="#FFD962" offset="100%"/></linearGradient><linearGradient x1="50%" y1="0%" x2="50%" y2="100%" id="b"><stop stop-color="#FFD6A0" offset="0%"/><stop stop-color="#FFAD67" offset="100%"/></linearGradient><linearGradient x1="50%" y1="0%" x2="50%" y2="100%" id="c"><stop stop-color="#FFEE9B" offset="0%"/><stop stop-color="#FFD962" offset="100%"/></linearGradient></defs><g fill="none" fill-rule="evenodd"><g fill-rule="nonzero"><path fill="url(#a)" d="M2.392 12.439h29.661V23.92h-10.79l-6.054 7.15 7.94 34.462H2.392z" transform="translate(147.907 24.319)"/><path fill="url(#b)" transform="matrix(-1 0 0 1 256.983 24.319)" d="M39.708 11.482h4.468l-.502-4.597 1.496-5.45h19.427l.945 5.191-.117 4.856h3.944v11.96H58.578l-6.054 6.672 7.94 34.94H39.708z"/><path fill="#57ABF1" d="M168.74 48.622h30.094l5.085 6.572H164.11z"/><path d="M217.353 89.348v-55.77h-2.315v-4.63h-2.315v-4.63H191.89v4.63h-2.314v4.63h-2.315v13.89h-5.179l-1.944-11.575h-6.767V28.95h-6.944v6.944h-6.945V28.95h-6.944v6.944h-2.315v53.455a3.468 3.468 0 0 0-2.315 3.26v3.472h71.76v-3.473c0-1.506-.97-2.78-2.314-3.259zm-23.149-62.714h16.204v2.315h-16.204v-2.315zm-2.315 4.63h20.834v2.314H191.89v-2.314zm-2.314 4.63h25.463v53.241h-17.06l5.401-23.149h7.03v-6.944h-5.41l.81-3.472h4.6v-6.945h-6.945v3.748l-4.089-4.905h-9.8V35.893zm2.314 53.241h-4.63v-6.944h4.63v6.944zm-6.944-9.26v9.26h-2.315v-9.26h-9.26v9.26h-1.397l-7.561-32.408h38.751l-7.562 32.408h-1.397v-9.26h-9.26zm-4.63 9.26h-4.63v-6.944h4.63v6.944zm25.464-35.88V50.94h2.314v2.315h-2.314zm-1.32 8.102h3.634v2.315h-4.174l.54-2.315zm-35.177-11.575h29.009l3.858 4.63h-36.726l3.86-4.63zm4.088-2.314h-5.17l-1.774 2.127v-6.757h6.944v4.63zm-9.259 0h-6.945v-4.63h6.945v4.63zm-6.945 2.314h6.945v2.59l-1.699 2.04h-5.246v-4.63zm0 6.945h4.87l1.08 4.63h-5.95v-4.63zm0 6.945h6.49l.455 1.951v2.678h-6.945v-4.63zm0 6.944h6.945v4.63h-6.945v-4.63zm0 6.945h6.945v4.63h-6.945v-4.63zm0 6.944h6.945v4.63h-6.945v-4.63zm9.26-8.962l3.172 13.592h-3.172V75.543zm2.315-44.28h2.315v4.63h-2.315v-4.63zm-13.89 0h2.315v4.63h-2.314v-4.63zm23.327 6.945l1.556 9.26h-4.049v-6.945h-20.833v48.612h-2.315V38.208h25.641zm39.175 55.557h-67.131v-1.158c0-.637.52-1.157 1.157-1.157h64.816c.638 0 1.158.52 1.158 1.157v1.158z" fill="#000"/><path d="M201.149 38.208h-6.945v6.945h6.945v-6.945zm-2.315 4.63h-2.315v-2.315h2.315v2.315zM210.408 38.208h-6.944v6.945h6.944v-6.945zm-2.315 4.63h-2.314v-2.315h2.314v2.315zM203.464 76.403h6.944V69.46h-6.944v6.944zm2.315-4.63h2.314v2.316h-2.314v-2.315zM203.464 86.82h6.944v-6.944h-6.944v6.944zm2.315-4.63h2.314v2.315h-2.314v-2.314zM196.52 59.042h-25.464v6.944h25.463v-6.944zm-13.89 2.315h2.315v2.315h-2.315v-2.315zm-2.315 2.315H178v-2.315h2.315v2.315zm6.945-2.315h2.315v2.315h-2.315v-2.315zm-13.89 0h2.315v2.315h-2.315v-2.315zm20.834 2.315h-2.315v-2.315h2.315v2.315zM196.52 68.301h-25.464v6.945h25.463v-6.945zm-13.89 2.315h2.315v2.315h-2.315v-2.315zm-2.315 2.315H178v-2.315h2.315v2.315zm6.945-2.315h2.315v2.315h-2.315v-2.315zm-13.89 0h2.315v2.315h-2.315v-2.315zm20.834 2.315h-2.315v-2.315h2.315v2.315z" fill="#000"/></g><path fill="url(#c)" fill-rule="nonzero" d="M17.143 9.568H45.05v33.488H17.143zM17.143 81.329H45.05v33.488H17.143z"/><path d="M17.143 39.894v3.96h43.854v-3.96c10.346.86 17.143 2.313 17.143 3.96 0 2.642-17.493 4.784-39.07 4.784C17.492 48.638 0 46.496 0 43.854c0-1.647 6.797-3.1 17.143-3.96zM17.143 111.23v3.96h43.854v-3.96c10.346.86 17.143 2.312 17.143 3.96 0 2.642-17.493 4.783-39.07 4.783-21.578 0-39.07-2.141-39.07-4.784 0-1.647 6.797-3.1 17.143-3.96z" fill="#EDF1F5" fill-rule="nonzero"/><g fill="#000" fill-rule="nonzero"><path d="M23.721 10.963h-2.924a.73.73 0 0 0-.73.731v2.924c0 .403.326.73.73.73h2.924a.73.73 0 0 0 .73-.73v-2.924a.73.73 0 0 0-.73-.73zm-.731 2.924h-1.462v-1.462h1.462v1.462zM32.492 10.963h-2.924a.73.73 0 0 0-.73.731v2.924c0 .403.326.73.73.73h2.924a.73.73 0 0 0 .73-.73v-2.924a.73.73 0 0 0-.73-.73zm-.731 2.924h-1.462v-1.462h1.462v1.462zM41.263 10.963h-2.924a.73.73 0 0 0-.731.731v2.924c0 .403.327.73.73.73h2.924a.73.73 0 0 0 .731-.73v-2.924a.73.73 0 0 0-.73-.73zm-.731 2.924H39.07v-1.462h1.462v1.462zM23.721 19.003h-2.924a.73.73 0 0 0-.73.73v2.925c0 .403.326.73.73.73h2.924a.73.73 0 0 0 .73-.73v-2.924a.73.73 0 0 0-.73-.73zm-.731 2.924h-1.462v-1.462h1.462v1.462zM32.492 19.003h-2.924a.73.73 0 0 0-.73.73v2.925c0 .403.326.73.73.73h2.924a.73.73 0 0 0 .73-.73v-2.924a.73.73 0 0 0-.73-.73zm-.731 2.924h-1.462v-1.462h1.462v1.462zM41.263 19.003h-2.924a.73.73 0 0 0-.731.73v2.925c0 .403.327.73.73.73h2.924a.73.73 0 0 0 .731-.73v-2.924a.73.73 0 0 0-.73-.73zm-.731 2.924H39.07v-1.462h1.462v1.462zM23.721 27.043h-2.924a.73.73 0 0 0-.73.73v2.925c0 .403.326.73.73.73h2.924a.73.73 0 0 0 .73-.73v-2.924a.73.73 0 0 0-.73-.73zm-.731 2.924h-1.462v-1.462h1.462v1.462zM32.492 27.043h-2.924a.73.73 0 0 0-.73.73v2.925c0 .403.326.73.73.73h2.924a.73.73 0 0 0 .73-.73v-2.924a.73.73 0 0 0-.73-.73zm-.731 2.924h-1.462v-1.462h1.462v1.462zM41.263 27.043h-2.924a.73.73 0 0 0-.731.73v2.925c0 .403.327.73.73.73h2.924a.73.73 0 0 0 .731-.73v-2.924a.73.73 0 0 0-.73-.73zm-.731 2.924H39.07v-1.462h1.462v1.462zM23.721 35.083h-2.924a.73.73 0 0 0-.73.73v2.925c0 .403.326.73.73.73h2.924a.73.73 0 0 0 .73-.73v-2.924a.73.73 0 0 0-.73-.73zm-.731 2.924h-1.462v-1.462h1.462v1.462zM41.263 35.083h-2.924a.73.73 0 0 0-.731.73v2.925c0 .403.327.73.73.73h2.924a.73.73 0 0 0 .731-.73v-2.924a.73.73 0 0 0-.73-.73zm-.731 2.924H39.07v-1.462h1.462v1.462z"/><path d="M60.266 18.272H44.917V8.771a.73.73 0 0 0-.73-.731h-.732V5.847a.73.73 0 0 0-.73-.73h-2.193V.73a.73.73 0 0 0-.73-.731H22.258a.73.73 0 0 0-.73.73v4.386h-2.193a.73.73 0 0 0-.731.73V8.04h-.731a.73.73 0 0 0-.731.73v34.353c0 .403.327.73.73.73h42.393a.73.73 0 0 0 .73-.73v-24.12a.73.73 0 0 0-.73-.73zM22.99 1.462h16.08v3.654H22.99V1.462zm-2.924 5.116h21.927V8.04H20.066V6.578zM30.3 42.392h-2.924v-5.257c.001-.73.592-1.32 1.321-1.321H30.3v6.578zm4.385 0h-2.923v-6.578h1.603c.729 0 1.32.592 1.32 1.321v5.257zm8.771 0h-7.309v-5.257a2.786 2.786 0 0 0-2.782-2.783h-4.668a2.786 2.786 0 0 0-2.782 2.783v5.257h-7.31V9.502h24.851v32.89zm10.964 0h-4.386v-3.956c.001-.64.52-1.16 1.16-1.16h2.065c.64 0 1.16.52 1.16 1.16v3.956zm5.116 0H55.88v-3.956a2.625 2.625 0 0 0-2.622-2.622h-2.065a2.625 2.625 0 0 0-2.622 2.622v3.956h-3.654V19.734h14.618v22.658z"/><path d="M54.419 21.196h-4.386a.73.73 0 0 0-.73.73v4.386c0 .404.326.731.73.731h4.386a.73.73 0 0 0 .73-.73v-4.386a.73.73 0 0 0-.73-.731zm-.731 4.385h-2.924v-2.923h2.924v2.923zM54.419 28.505h-4.386a.73.73 0 0 0-.73.73v4.386c0 .404.326.731.73.731h4.386a.73.73 0 0 0 .73-.73v-4.386a.73.73 0 0 0-.73-.731zm-.731 4.385h-2.924v-2.923h2.924v2.923z"/></g><g fill="#000" fill-rule="nonzero"><path d="M23.721 82.724h-2.924a.73.73 0 0 0-.73.73v2.925c0 .403.326.73.73.73h2.924a.73.73 0 0 0 .73-.73v-2.924a.73.73 0 0 0-.73-.73zm-.731 2.924h-1.462v-1.462h1.462v1.462zM32.492 82.724h-2.924a.73.73 0 0 0-.73.73v2.925c0 .403.326.73.73.73h2.924a.73.73 0 0 0 .73-.73v-2.924a.73.73 0 0 0-.73-.73zm-.731 2.924h-1.462v-1.462h1.462v1.462zM41.263 82.724h-2.924a.73.73 0 0 0-.731.73v2.925c0 .403.327.73.73.73h2.924a.73.73 0 0 0 .731-.73v-2.924a.73.73 0 0 0-.73-.73zm-.731 2.924H39.07v-1.462h1.462v1.462zM23.721 90.764h-2.924a.73.73 0 0 0-.73.73v2.925c0 .403.326.73.73.73h2.924a.73.73 0 0 0 .73-.73v-2.924a.73.73 0 0 0-.73-.73zm-.731 2.924h-1.462v-1.462h1.462v1.462zM32.492 90.764h-2.924a.73.73 0 0 0-.73.73v2.925c0 .403.326.73.73.73h2.924a.73.73 0 0 0 .73-.73v-2.924a.73.73 0 0 0-.73-.73zm-.731 2.924h-1.462v-1.462h1.462v1.462zM41.263 90.764h-2.924a.73.73 0 0 0-.731.73v2.925c0 .403.327.73.73.73h2.924a.73.73 0 0 0 .731-.73v-2.924a.73.73 0 0 0-.73-.73zm-.731 2.924H39.07v-1.462h1.462v1.462zM23.721 98.804h-2.924a.73.73 0 0 0-.73.73v2.924c0 .404.326.731.73.731h2.924a.73.73 0 0 0 .73-.73v-2.924a.73.73 0 0 0-.73-.731zm-.731 2.924h-1.462v-1.462h1.462v1.462zM32.492 98.804h-2.924a.73.73 0 0 0-.73.73v2.924c0 .404.326.731.73.731h2.924a.73.73 0 0 0 .73-.73v-2.924a.73.73 0 0 0-.73-.731zm-.731 2.924h-1.462v-1.462h1.462v1.462zM41.263 98.804h-2.924a.73.73 0 0 0-.731.73v2.924c0 .404.327.731.73.731h2.924a.73.73 0 0 0 .731-.73v-2.924a.73.73 0 0 0-.73-.731zm-.731 2.924H39.07v-1.462h1.462v1.462zM23.721 106.844h-2.924a.73.73 0 0 0-.73.73v2.924c0 .404.326.731.73.731h2.924a.73.73 0 0 0 .73-.73v-2.924a.73.73 0 0 0-.73-.731zm-.731 2.923h-1.462v-1.461h1.462v1.461zM41.263 106.844h-2.924a.73.73 0 0 0-.731.73v2.924c0 .404.327.731.73.731h2.924a.73.73 0 0 0 .731-.73v-2.924a.73.73 0 0 0-.73-.731zm-.731 2.923H39.07v-1.461h1.462v1.461z"/><path d="M60.266 90.033H44.917v-9.501a.73.73 0 0 0-.73-.731h-.732v-2.193a.73.73 0 0 0-.73-.73h-2.193v-4.386a.73.73 0 0 0-.73-.731H22.258a.73.73 0 0 0-.73.73v4.386h-2.193a.73.73 0 0 0-.731.73v2.194h-.731a.73.73 0 0 0-.731.73v34.353c0 .403.327.73.73.73h42.393a.73.73 0 0 0 .73-.73v-24.12a.73.73 0 0 0-.73-.73zM22.99 73.223h16.08v3.654H22.99v-3.654zm-2.924 5.116h21.927V79.8H20.066v-1.462zM30.3 114.153h-2.924v-5.257c.001-.73.592-1.32 1.321-1.321H30.3v6.578zm4.385 0h-2.923v-6.578h1.603c.729 0 1.32.592 1.32 1.32v5.258zm8.771 0h-7.309v-5.257a2.786 2.786 0 0 0-2.782-2.783h-4.668a2.786 2.786 0 0 0-2.782 2.783v5.257h-7.31v-32.89h24.851v32.89zm10.964 0h-4.386v-3.957c.001-.64.52-1.159 1.16-1.16h2.065c.64.001 1.16.52 1.16 1.16v3.957zm5.116 0H55.88v-3.957a2.625 2.625 0 0 0-2.622-2.621h-2.065a2.625 2.625 0 0 0-2.622 2.621v3.957h-3.654V91.495h14.618v22.658z"/><path d="M54.419 92.957h-4.386a.73.73 0 0 0-.73.73v4.386c0 .404.326.73.73.731h4.386a.73.73 0 0 0 .73-.73v-4.386a.73.73 0 0 0-.73-.731zm-.731 4.385h-2.924V94.42h2.924v2.923zM54.419 100.266h-4.386a.73.73 0 0 0-.73.73v4.386c0 .404.326.73.73.731h4.386a.73.73 0 0 0 .73-.73v-4.386a.73.73 0 0 0-.73-.731zm-.731 4.385h-2.924v-2.923h2.924v2.923z"/></g><path d="M67.63 31.063c16.527-1.834 28.082 9.241 34.668 33.226M67.63 97.412c16.527 1.834 28.082-9.241 34.668-33.226M102.298 64.289h36.08M138.377 64.289l-4.822 4.823M138.377 64.328l-4.822-4.823" stroke="#0F87EC" stroke-width="3" stroke-linecap="round"/></g></svg>
