<?xml version="1.0" encoding="UTF-8"?>
<svg width="16px" height="203px" viewBox="0 0 16 203" version="1.1" xmlns="http://www.w3.org/2000/svg" xmlns:xlink="http://www.w3.org/1999/xlink">
    <!-- Generator: Sketch 56.3 (81716) - https://sketch.com -->
    <title>Artboard</title>
    <desc>Created with Sketch.</desc>
    <g id="Artboard" stroke="none" stroke-width="1" fill="none" fill-rule="evenodd">
        <path d="M8,24.7713892 L5.68583236,27.0855568 L4.91444314,26.3141676 L7.22861079,24 L4.91444314,21.6858324 L5.68583236,20.9144432 L8,23.2286108 L10.3141676,20.9144432 L11.0855568,21.6858324 L8.77138924,24 L11.0855568,26.3141676 L10.3141676,27.0855568 L8,24.7713892 L8,24.7713892 Z M8,30 C11.3137087,30 14,27.3137087 14,24 C14,20.6862913 11.3137087,18 8,18 C4.68629134,18 2,20.6862913 2,24 C2,27.3137087 4.68629134,30 8,30 L8,30 Z" id="tag-cancel" fill="#E0493A" fill-rule="nonzero"></path>
        <path d="M8.5,1 C11.5415,1 14,3.4585 14,6.5 C14,9.5415 11.5415,12 8.5,12 C5.4585,12 3,9.5415 3,6.5 C3,3.4585 5.4585,1 8.5,1 Z M7.4,9.481 L12.35,4.531 L11.5745,3.75 L7.4,7.9245 L5.4255,5.9555 L4.65,6.731 L7.4,9.481 Z" id="Shape-Copy" fill="#13C77F"></path>
        <g id="Group-3-Copy" transform="translate(0.000000, 36.000000)">
            <rect id="Rectangle" x="0" y="0" width="14" height="14"></rect>
            <path d="M3.30934565,15.2140466 L12.6906864,15.2140466 C13.7952559,15.2140466 14.6906864,14.3186161 14.6906864,13.2140466 C14.6906864,12.8659927 14.5998557,12.5239641 14.4271727,12.2217687 L9.7365023,4.0130956 C9.18848236,3.05406071 7.96677304,2.72086725 7.00773814,3.26888719 C6.69767559,3.4460658 6.44070834,3.70303305 6.26352973,4.0130956 L1.57285937,12.2217687 C1.02483943,13.1808036 1.35803288,14.402513 2.31706778,14.9505329 C2.61926317,15.123216 2.96129178,15.2140466 3.30934565,15.2140466 Z M8.73974599,12.9656568 L7.26028604,12.9656568 L7.26028604,11.4667303 L8.73974599,11.4667303 L8.73974599,12.9656568 Z M8.73974599,9.96780377 L7.26028604,9.96780377 L7.26028604,6.96995071 L8.73974599,6.96995071 L8.73974599,9.96780377 Z" id="Shape-Copy-6" fill="#FF8B26" fill-rule="nonzero"></path>
        </g>
        <path d="M14.8750061,71.2703492 L11.3150271,67.8366986 C12.2480749,66.7642112 12.7616631,65.3845666 12.75941,63.9566734 C12.7667926,61.16338 10.8469232,58.7422532 8.14715617,58.1402091 C5.44738912,57.5381651 2.69718084,58.9178715 1.54011351,61.4547868 C0.383046167,63.9917022 1.13175054,67.0003714 3.33878519,68.6827505 C5.54581984,70.3651296 8.61486082,70.2666527 10.7117849,68.4461716 L14.2802602,71.8798222 C14.3618777,71.9546713 14.4674385,71.9973318 14.5776332,72 C14.6934729,71.9965204 14.8033215,71.9471945 14.8835025,71.862654 C15.0420862,71.6963395 15.0382936,71.4319507 14.8750061,71.2703492 Z M1.88405649,63.8880004 C1.88405649,61.0908799 4.12838958,58.8233657 6.89691475,58.8233657 C9.66543993,58.8233657 11.909773,61.0908799 11.909773,63.8880004 C11.909773,66.6851209 9.66543993,68.9526351 6.89691475,68.9526351 C4.13032928,68.9479095 1.88873374,66.6831612 1.88405649,63.8880004 Z" id="Shape" fill="#8399AF" fill-rule="nonzero"></path>
        <g id="Group-7-Copy" transform="translate(2.000000, 78.000000)">
            <circle id="Oval-Copy-8" fill="#B8C8D8" cx="6" cy="6" r="6"></circle>
            <g id="clockwise-rotation" transform="translate(5.000000, 3.000000)" fill="#FFFFFF" fill-rule="nonzero">
                <path d="M0.378320945,0 C0.169454173,0 0,0.151200598 0,0.337862214 L0,3.70409086 L3.44790225,5.29563849 C3.503395,5.32127404 3.56276397,5.33344423 3.62123267,5.33333333 C3.75822646,5.33333333 3.89044373,5.26680967 3.95771524,5.15060114 C4.05357088,4.98481865 3.98099768,4.78105179 3.79518828,4.69530222 L0.756816946,3.29271626 L0.756816946,0.337862214 C0.756791938,0.151200598 0.587462805,0 0.378320945,0 Z" id="Path"></path>
            </g>
        </g>
        <g id="Group-7-Copy-2" transform="translate(2.000000, 96.000000)">
            <circle id="Oval" fill="#FA9C49" cx="6" cy="6" r="6"></circle>
            <rect id="Rectangle" fill="#FFFFFF" x="4" y="4" width="1" height="4"></rect>
            <rect id="Rectangle-Copy" fill="#FFFFFF" x="7" y="4" width="1" height="4"></rect>
        </g>
        <g id="Group-3-Copy" transform="translate(2.000000, 114.000000)">
            <circle id="Oval-Copy-10" fill="#13C77F" cx="6" cy="6" r="6"></circle>
            <path d="M6,0 L6,6 L10.6616733,2.22228137 C11.4985389,3.25369404 12,4.56828577 12,6 C12,9.3137085 9.3137085,12 6,12 C2.6862915,12 0,9.3137085 0,6 C0,2.6862915 2.6862915,0 6,0 Z" id="Combined-Shape" fill="#E5E5E5"></path>
        </g>
        <g id="Group-5-Copy" transform="translate(2.000000, 132.000000)">
            <circle id="Oval-Copy-12" fill="#13C77F" cx="6" cy="6" r="6"></circle>
            <path d="M6,4.53859172e-13 L6,6 L9.8443123,10.6068462 C8.80317571,11.4765895 7.46271239,12 6,12 C2.6862915,12 3.01092484e-13,9.3137085 3.01092484e-13,6 C3.01092484e-13,2.6862915 2.6862915,0 6,0 Z" id="Combined-Shape" fill="#E5E5E5"></path>
        </g>
        <g id="Group-6-Copy" transform="translate(2.000000, 150.000000)">
            <circle id="Oval-Copy-6" fill="#E5E5E5" cx="6" cy="6" r="6"></circle>
            <path d="M-8.8817842e-16,6 L6,6 L6,0 C9.3137085,0 12,2.6862915 12,6 C12,9.3137085 9.3137085,12 6,12 C2.6862915,12 0,9.3137085 0,6 Z" id="Combined-Shape" fill="#13C77F"></path>
        </g>
        <g id="success-copy" transform="translate(2.000000, 168.000000)" fill="#13C77F" fill-rule="nonzero">
            <path d="M6,0 C2.69169231,0 0,2.69146154 0,6 C0,9.30853846 2.69169231,12 6,12 C9.30830769,12 12,9.30853846 12,6 C12,2.69146154 9.30830769,0 6,0 Z M9.345,3.999 L5.65269231,8.15284615 C5.56176923,8.25507692 5.43507692,8.30769231 5.30746154,8.30769231 C5.20615385,8.30769231 5.10438462,8.27446154 5.01923077,8.20661538 L2.71153846,6.36046154 C2.51261538,6.20146154 2.48030769,5.91092308 2.63953846,5.71176923 C2.79853846,5.51261538 3.08930769,5.48030769 3.28823077,5.63953846 L5.25369231,7.21176923 L8.655,3.38538462 C8.82392308,3.19476923 9.11607692,3.17769231 9.30646154,3.34707692 C9.49707692,3.51669231 9.51438462,3.80838462 9.345,3.999 Z" id="Shape"></path>
        </g>
        <g id="Group-5-Copy-2" transform="translate(2.000000, 186.000000)" stroke="#FF963A">
            <g id="Group-3">
                <path d="M6,0 C2.6862915,0 0,2.6862915 0,6 C0,9.3137085 2.6862915,12 6,12 L6,12" id="Path" stroke-dasharray="1,1"></path>
                <path d="M12,0 C8.6862915,0 6,2.6862915 6,6 C6,9.3137085 8.6862915,12 12,12 L12,12" id="Path-Copy-4" transform="translate(9.000000, 6.000000) rotate(-180.000000) translate(-9.000000, -6.000000) "></path>
            </g>
            <path d="M8.10022727,4.86056402 L5.46562427,7.97269014 L3.87841696,6.63946179 C3.80470498,6.57736327 3.69653695,6.59014296 3.63756737,6.66754113 C3.57842637,6.74529928 3.590426,6.85851659 3.66430939,6.92061512 L5.37854129,8.36058094 C5.41008315,8.38704031 5.44796768,8.4 5.48568078,8.4 C5.53299358,8.4 5.58013496,8.37948049 5.61390533,8.33952144 L8.35667636,5.09959835 C8.41958867,5.02544011 8.41324601,4.91150281 8.34244823,4.84562437 C8.27147903,4.77938595 8.163311,4.78604579 8.10022727,4.86056402 Z" id="Path" stroke-width="0.5" fill="#FF963A" fill-rule="nonzero"></path>
        </g>
    </g>
</svg>