<svg width="56" height="184" viewBox="0 0 56 184" xmlns="http://www.w3.org/2000/svg"><title>Artboard</title><g fill="none" fill-rule="evenodd"><path d="M0 0h24v24H0z"/><path d="M11.75 8.5c.963 0 1.75-.787 1.75-1.75S12.713 5 11.75 5 10 5.787 10 6.75s.787 1.75 1.75 1.75zm0 1.75c-.963 0-1.75.787-1.75 1.75s.787 1.75 1.75 1.75 1.75-.787 1.75-1.75-.787-1.75-1.75-1.75zm0 5.25c-.963 0-1.75.788-1.75 1.75S10.787 19 11.75 19s1.75-.788 1.75-1.75-.787-1.75-1.75-1.75z" fill="#557391" fill-rule="nonzero"/><path d="M32 0h24v24H32z"/><path d="M43.75 8.5c.963 0 1.75-.787 1.75-1.75S44.713 5 43.75 5 42 5.787 42 6.75s.787 1.75 1.75 1.75zm0 1.75c-.963 0-1.75.787-1.75 1.75s.787 1.75 1.75 1.75 1.75-.787 1.75-1.75-.787-1.75-1.75-1.75zm0 5.25c-.963 0-1.75.788-1.75 1.75S42.787 19 43.75 19s1.75-.788 1.75-1.75-.787-1.75-1.75-1.75z" fill="#2B3D51" fill-rule="nonzero"/><path d="M0 64h24v24H0z"/><path d="M5 68v.996h14v.627l-5.82 7.487-.21.259V82.905l-2-.896v-4.65l-.2-.269L5 69.583V68zm0 0c-.552 0-1 .446-1 .996v.995l6 7.806v4.311c.01.37.226.704.56.866l2 .926a.998.998 0 0 0 1.43-.896v-5.227L20 69.991v-.995A.998.998 0 0 0 19 68H5z" fill="#557391" fill-rule="nonzero"/><path d="M32 64h24v24H32z"/><path d="M37 68v.996h14v.627l-5.82 7.487-.21.259V82.905l-2-.896v-4.65l-.2-.269L37 69.583V68zm0 0c-.552 0-1 .446-1 .996v.995l6 7.806v4.311c.01.37.226.704.56.866l2 .926a.998.998 0 0 0 1.43-.896v-5.227L52 69.991v-.995A.998.998 0 0 0 51 68H37z" fill="#2B3D51" fill-rule="nonzero"/><path d="M0 96h24v24H0z"/><path d="M19.79 115l-4.19-4a6.83 6.83 0 0 0 1.7-4.52 6.92 6.92 0 1 0-2.41 5.23l4.2 4a.54.54 0 0 0 .35.14.52.52 0 0 0 .36-.16.49.49 0 0 0-.01-.69zM4.5 106.4a5.9 5.9 0 1 1 5.9 5.9 5.91 5.91 0 0 1-5.9-5.9z" fill="#557391" fill-rule="nonzero"/><g><path d="M32 96h24v24H32z"/><path d="M51.79 115l-4.19-4a6.83 6.83 0 0 0 1.7-4.52 6.92 6.92 0 1 0-2.41 5.23l4.2 4a.54.54 0 0 0 .35.14.52.52 0 0 0 .36-.16.49.49 0 0 0-.01-.69zm-15.29-8.6a5.9 5.9 0 1 1 5.9 5.9 5.91 5.91 0 0 1-5.9-5.9z" fill="#2B3D51" fill-rule="nonzero"/></g><g><path d="M32 32h24v24H32z"/><path d="M44 40.18A3.83 3.83 0 0 1 47.82 44 3.82 3.82 0 1 1 44 40.18zm0 6.64A2.83 2.83 0 0 0 46.82 44 2.82 2.82 0 1 0 44 46.82zm8.53-4.74a1 1 0 0 1 1.08.98v1.86a1 1 0 0 1-1 1h-1.17a7.57 7.57 0 0 1-.8 1.93l.83.83a1 1 0 0 1 0 1.37l-1.33 1.33a1 1 0 0 1-.7.29.93.93 0 0 1-.67-.28l-.83-.83a7.57 7.57 0 0 1-1.93.8v1.16a1 1 0 0 1-1 1h-1.88a1 1 0 0 1-1-1v-1.17a7.57 7.57 0 0 1-1.93-.8l-.83.83a1 1 0 0 1-1.37 0l-1.38-1.24a1 1 0 0 1-.29-.7.93.93 0 0 1 .28-.67l.83-.83a7.57 7.57 0 0 1-.8-1.93h-1.17a1 1 0 0 1-1-1v-1.88a1 1 0 0 1 1-1h1.18a7.57 7.57 0 0 1 .8-1.93l-.83-.83a1 1 0 0 1 0-1.37l1.31-1.38a1 1 0 0 1 .7-.29.93.93 0 0 1 .67.28l.83.83a7.57 7.57 0 0 1 1.93-.8v-1.17a1 1 0 0 1 1-1h1.86a1 1 0 0 1 1 1v1.18a7.57 7.57 0 0 1 1.93.8l.83-.83a1 1 0 0 1 1.37 0l1.33 1.33a1 1 0 0 1 .29.7.93.93 0 0 1-.28.67l-.83.83a7.57 7.57 0 0 1 .8 1.93h1.17zm-1.94 2.84l1.91.02v-1.86h-1.91l-.19-.73a6.51 6.51 0 0 0-.71-1.7l-.38-.65 1.38-1.38-1.34-1.29L48 38.69l-.65-.38a6.51 6.51 0 0 0-1.7-.71l-.73-.19V35.5h-1.84v1.91l-.73.19a6.51 6.51 0 0 0-1.7.71l-.65.38-1.38-1.38-1.29 1.34L38.69 40l-.38.63a6.51 6.51 0 0 0-.71 1.7l-.19.73H35.5v1.86h1.91l.19.73a6.51 6.51 0 0 0 .71 1.7l.38.65-1.38 1.38 1.34 1.29L40 49.31l.63.38a6.51 6.51 0 0 0 1.7.71l.73.19v1.91h1.86v-1.91l.73-.19a6.51 6.51 0 0 0 1.7-.71l.65-.38 1.38 1.38 1.29-1.34L49.31 48l.38-.65a6.51 6.51 0 0 0 .71-1.7l.19-.73z" fill="#2B3D51" fill-rule="nonzero"/></g><g><path d="M0 32h24v24H0z"/><path d="M12 40.18A3.83 3.83 0 0 1 15.82 44 3.82 3.82 0 1 1 12 40.18zm0 6.64A2.83 2.83 0 0 0 14.82 44 2.82 2.82 0 1 0 12 46.82zm8.53-4.74a1 1 0 0 1 1.08.98v1.86a1 1 0 0 1-1 1h-1.17a7.57 7.57 0 0 1-.8 1.93l.83.83a1 1 0 0 1 0 1.37l-1.33 1.33a1 1 0 0 1-.7.29.93.93 0 0 1-.67-.28l-.83-.83a7.57 7.57 0 0 1-1.93.8v1.16a1 1 0 0 1-1 1h-1.88a1 1 0 0 1-1-1v-1.17a7.57 7.57 0 0 1-1.93-.8l-.83.83a1 1 0 0 1-1.37 0l-1.38-1.24a1 1 0 0 1-.29-.7.93.93 0 0 1 .28-.67l.83-.83a7.57 7.57 0 0 1-.8-1.93H3.47a1 1 0 0 1-1-1v-1.88a1 1 0 0 1 1-1h1.18a7.57 7.57 0 0 1 .8-1.93l-.83-.83a1 1 0 0 1 0-1.37l1.31-1.38a1 1 0 0 1 .7-.29.93.93 0 0 1 .67.28l.83.83a7.57 7.57 0 0 1 1.93-.8v-1.17a1 1 0 0 1 1-1h1.86a1 1 0 0 1 1 1v1.18a7.57 7.57 0 0 1 1.93.8l.83-.83a1 1 0 0 1 1.37 0l1.33 1.33a1 1 0 0 1 .29.7.93.93 0 0 1-.28.67l-.83.83a7.57 7.57 0 0 1 .8 1.93h1.17zm-1.94 2.84l1.91.02v-1.86h-1.91l-.19-.73a6.51 6.51 0 0 0-.71-1.7l-.38-.65 1.38-1.38-1.34-1.29L16 38.69l-.65-.38a6.51 6.51 0 0 0-1.7-.71l-.73-.19V35.5h-1.84v1.91l-.73.19a6.51 6.51 0 0 0-1.7.71l-.65.38-1.38-1.38-1.29 1.34L6.69 40l-.38.63a6.51 6.51 0 0 0-.71 1.7l-.19.73H3.5v1.86h1.91l.19.73a6.51 6.51 0 0 0 .71 1.7l.38.65-1.38 1.38 1.34 1.29L8 49.31l.63.38a6.51 6.51 0 0 0 1.7.71l.73.19v1.91h1.86v-1.91l.73-.19a6.51 6.51 0 0 0 1.7-.71l.65-.38 1.38 1.38 1.29-1.34L17.31 48l.38-.65a6.51 6.51 0 0 0 .71-1.7l.19-.73z" fill="#557391" fill-rule="nonzero"/></g><g><path d="M0 184h24v-24H0z"/><path d="M18 169H6v9a2 2 0 0 0 2 2h8a2 2 0 0 0 2-2v-9zm-1 1v8c0 .551-.449 1-1 1H8c-.551 0-1-.449-1-1v-8h10z" fill="#0F87EC"/><path d="M18.5 167h-13a1.5 1.5 0 1 0 0 3h13a1.5 1.5 0 1 0 0-3m0 1a.5.5 0 0 1 0 1h-13a.5.5 0 0 1 0-1h13" fill="#0F87EC"/><path d="M14 165h-4a2 2 0 0 0-2 2v1h8v-1a2 2 0 0 0-2-2m0 1c.551 0 1 .449 1 1H9c0-.551.449-1 1-1h4M10.5 177a.5.5 0 0 1-.5-.5v-4a.5.5 0 0 1 1 0v4a.5.5 0 0 1-.5.5M13.5 177a.5.5 0 0 1-.5-.5v-4a.5.5 0 0 1 1 0v4a.5.5 0 0 1-.5.5" fill="#0F87EC"/></g><g><path d="M0 127h24v24H0z"/><path d="M14.433 137.167c.307.439.74.773 1.242.958h.726a2.624 2.624 0 1 1 0 1.75h-.726c-.509.184-.949.52-1.26.965l-.19.312a.044.044 0 0 1 0 .018l-1.038 1.715-.02.028-.087.145-.022.035-.017.024v.013a2.624 2.624 0 0 1-2.15 1.12H9.098a2.624 2.624 0 1 1 0-1.75h1.793a.875.875 0 0 0 .717-.376l.079-.13.015-.026 1.048-1.728v-.015l.218-.35a.348.348 0 0 1 .027-.048l.015-.026c.213-.3.462-.572.743-.81a4.355 4.355 0 0 1-.743-.81l-.022-.03a3.876 3.876 0 0 1-.25-.409l-1.14-1.881a.875.875 0 0 0-.707-.36H9.098a2.624 2.624 0 1 1 0-1.75h1.793c.82.003 1.59.39 2.084 1.045.026.035.055.065.079.103l.013.015c.048.066.092.14.135.219l1.032 1.704.024.046a.24.24 0 0 1 .02.03c.044.082.092.162.144.239l.011.015zm-8.68-2.542a.875.875 0 1 0 1.749 0 .875.875 0 0 0-1.75 0zm1.749 8.75a.875.875 0 1 0-1.75 0 .875.875 0 0 0 1.75 0z" fill="#0F87EC"/></g></g></svg>