<?xml version="1.0" encoding="UTF-8"?>
<svg width="17px" height="17px" viewBox="0 0 17 17" version="1.1" xmlns="http://www.w3.org/2000/svg" xmlns:xlink="http://www.w3.org/1999/xlink">
    <!-- Generator: Sketch 54.1 (76490) - https://sketchapp.com -->
    <title>Search</title>
    <desc>Created with Sketch.</desc>
    <g id="Final" stroke="none" stroke-width="1" fill="none" fill-rule="evenodd">
        <g id="5" transform="translate(-1126.000000, -107.000000)">
            <g id="Search" transform="translate(1123.000000, 104.000000)">
                <rect id="Rectangle-4" x="0" y="0" width="24" height="24"></rect>
                <path d="M19.79,19 L15.6,15 C16.6981723,13.7506155 17.3026518,12.1434112 17.3,10.48 C17.3086891,7.22597834 15.0490542,4.40550873 11.8715007,3.70416299 C8.69394713,3.00281724 5.4570256,4.61009363 4.09518832,7.56545006 C2.73335103,10.5208065 3.61455604,14.0257282 6.21217675,15.9856004 C8.80979745,17.9454726 12.4219765,17.8307529 14.89,15.71 L19.09,19.71 C19.1860616,19.7971948 19.3103038,19.8468917 19.44,19.85 C19.5763403,19.8459464 19.7056291,19.7884847 19.8,19.69 C19.9866488,19.4962535 19.982185,19.1882562 19.79,19 Z M4.5,10.4 C4.5,7.14151998 7.14151998,4.5 10.4,4.5 C13.65848,4.5 16.3,7.14151998 16.3,10.4 C16.3,13.65848 13.65848,16.3 10.4,16.3 C7.14380295,16.294495 4.50550499,13.6561971 4.5,10.4 Z" id="Shape" fill="#557391" fill-rule="nonzero"></path>
            </g>
        </g>
    </g>
</svg>