<svg width="187" height="136" viewBox="0 0 187 136" fill="none" xmlns="http://www.w3.org/2000/svg">
    <g opacity=".72">
        <path d="M183.015 136H3.039a3.121 3.121 0 0 1-2.148-.85A2.839 2.839 0 0 1 0 133.1V2.9C0 2.131.321 1.394.891.85A3.118 3.118 0 0 1 3.04 0h179.976c.806 0 1.579.307 2.148.85.57.544.89 1.281.891 2.05v130.2a2.838 2.838 0 0 1-.891 2.05 3.12 3.12 0 0 1-2.148.85zM3.039.645c-.627 0-1.227.238-1.67.661A2.208 2.208 0 0 0 .674 2.9v130.2c.001.598.25 1.171.693 1.594a2.42 2.42 0 0 0 1.671.661h179.976c.627 0 1.228-.238 1.671-.661.443-.423.692-.996.693-1.594V2.9a2.21 2.21 0 0 0-.693-1.594 2.425 2.425 0 0 0-1.671-.661H3.039z" fill="#AFC3D7"/>
        <path d="M79.547 69.63H26.91a2.79 2.79 0 0 1-2.787-2.785v-9.592a2.787 2.787 0 0 1 2.787-2.784h52.637a2.79 2.79 0 0 1 2.787 2.784v9.592a2.787 2.787 0 0 1-2.787 2.785zM26.91 55.088a2.17 2.17 0 0 0-2.168 2.165v9.592a2.168 2.168 0 0 0 2.168 2.166h52.637a2.17 2.17 0 0 0 2.167-2.166v-9.592a2.168 2.168 0 0 0-2.167-2.165H26.91zM159.744 69.63h-52.637a2.793 2.793 0 0 1-2.787-2.785v-9.592a2.79 2.79 0 0 1 2.787-2.784h52.637a2.792 2.792 0 0 1 2.787 2.784v9.592a2.79 2.79 0 0 1-2.787 2.785zm-52.637-14.542a2.17 2.17 0 0 0-2.167 2.165v9.592a2.166 2.166 0 0 0 2.167 2.166h52.637a2.17 2.17 0 0 0 2.168-2.166v-9.592a2.17 2.17 0 0 0-2.168-2.165h-52.637z" fill="#7596B7"/>
        <path d="M32.833 60.037a2.013 2.013 0 0 0-2.013 2.011 2.01 2.01 0 0 0 2.013 2.011h34.369a2.014 2.014 0 0 0 2.013-2.01 2.01 2.01 0 0 0-2.013-2.012h-34.37z" fill="#0369E9"/>
        <path d="M26.043 13.332c-.42 0-.823.224-1.12.622-.297.399-.464.94-.464 1.503 0 .564.167 1.104.464 1.503.297.398.7.622 1.12.622h27.054c.42 0 .823-.224 1.12-.622.297-.399.464-.94.464-1.503 0-.564-.167-1.104-.464-1.503-.297-.398-.7-.622-1.12-.622H26.043zM107.266 13.332c-.42 0-.823.224-1.12.622-.297.399-.464.94-.464 1.503 0 .564.167 1.104.464 1.503.297.398.7.622 1.12.622h27.054c.42 0 .823-.224 1.12-.622.297-.399.464-.94.464-1.503 0-.564-.167-1.104-.464-1.503-.297-.398-.7-.622-1.12-.622h-27.054z" fill="#E3EAF1"/>
        <path d="M72.891 60.752a.187.187 0 0 0-.16.09.176.176 0 0 0 0 .18l1.566 2.64a.182.182 0 0 0 .16.09.188.188 0 0 0 .16-.09l1.565-2.64a.176.176 0 0 0-.067-.246.187.187 0 0 0-.092-.024H72.89zM113.028 60.037a2.014 2.014 0 0 0-2.012 2.011 2.012 2.012 0 0 0 2.012 2.011h34.369a2.012 2.012 0 1 0 0-4.022h-34.369zM153.087 60.752a.184.184 0 0 0-.185.18c0 .031.009.062.025.09l1.566 2.64a.18.18 0 0 0 .067.066.188.188 0 0 0 .252-.066l1.566-2.64a.177.177 0 0 0-.068-.246.187.187 0 0 0-.092-.024h-3.131z" fill="#0369E9"/>
        <path d="M79.547 43.179H26.91a2.791 2.791 0 0 1-2.787-2.785v-9.592a2.787 2.787 0 0 1 2.787-2.784h52.637a2.79 2.79 0 0 1 2.787 2.784v9.592a2.787 2.787 0 0 1-2.787 2.785zM26.91 28.636a2.17 2.17 0 0 0-2.168 2.166v9.592a2.168 2.168 0 0 0 2.168 2.166h52.637a2.17 2.17 0 0 0 2.167-2.166v-9.592a2.167 2.167 0 0 0-2.167-2.166H26.91zM159.744 43.179h-52.637a2.79 2.79 0 0 1-2.787-2.785v-9.592a2.79 2.79 0 0 1 2.787-2.784h52.637a2.793 2.793 0 0 1 2.787 2.784v9.592a2.789 2.789 0 0 1-2.787 2.785zm-52.637-14.543a2.17 2.17 0 0 0-2.167 2.166v9.592a2.166 2.166 0 0 0 2.167 2.166h52.637a2.17 2.17 0 0 0 2.168-2.166v-9.592a2.17 2.17 0 0 0-2.168-2.166h-52.637z" fill="#E3EAF1"/>
        <path d="M32.833 33.588a2.013 2.013 0 0 0-2.013 2.011 2.01 2.01 0 0 0 2.013 2.011h34.369a2.014 2.014 0 0 0 2.013-2.01 2.01 2.01 0 0 0-2.013-2.012h-34.37zM72.891 34.307a.188.188 0 0 0-.16.09.176.176 0 0 0 0 .18l1.566 2.64a.183.183 0 0 0 .16.09.183.183 0 0 0 .16-.09l1.565-2.64a.176.176 0 0 0-.067-.246.188.188 0 0 0-.092-.024H72.89zM113.028 33.588a2.014 2.014 0 0 0-2.012 2.011 2.012 2.012 0 0 0 2.012 2.011h34.369a2.012 2.012 0 1 0 0-4.022h-34.369zM153.087 34.307a.185.185 0 0 0-.185.18c0 .03.009.062.025.09l1.566 2.64a.18.18 0 0 0 .067.066.189.189 0 0 0 .252-.066l1.566-2.64a.177.177 0 0 0-.068-.246.188.188 0 0 0-.092-.024h-3.131z" fill="#AFC3D7"/>
        <path d="m95.742 64.781 2.337-2.38-2.337-2.38M98.08 62.398h-9.563" stroke="#0369E9" stroke-width="1.2" stroke-linecap="round" stroke-linejoin="round"/>
        <path d="m95.742 37.654 2.337-2.38-2.337-2.38M98.08 35.273h-9.563" stroke="#AFC3D7" stroke-width="1.2" stroke-linecap="round" stroke-linejoin="round"/>
        <path d="M79.547 95.4H26.91a2.791 2.791 0 0 1-2.787-2.785v-9.592a2.787 2.787 0 0 1 2.787-2.785h52.637a2.79 2.79 0 0 1 2.787 2.785v9.592a2.787 2.787 0 0 1-2.787 2.784zM26.91 80.856a2.17 2.17 0 0 0-2.168 2.166v9.592a2.168 2.168 0 0 0 2.168 2.166h52.637a2.17 2.17 0 0 0 2.167-2.166v-9.592a2.167 2.167 0 0 0-2.167-2.166H26.91zM159.744 95.4h-52.637a2.789 2.789 0 0 1-2.787-2.785v-9.592a2.79 2.79 0 0 1 2.787-2.785h52.637a2.793 2.793 0 0 1 2.787 2.785v9.592a2.789 2.789 0 0 1-2.787 2.784zm-52.637-14.543a2.17 2.17 0 0 0-2.167 2.166v9.592a2.166 2.166 0 0 0 2.167 2.166h52.637a2.17 2.17 0 0 0 2.168-2.166v-9.592a2.17 2.17 0 0 0-2.168-2.166h-52.637z" fill="#E3EAF1"/>
        <path d="M32.833 85.81a2.013 2.013 0 0 0-2.013 2.012 2.01 2.01 0 0 0 2.013 2.01h34.369a2.013 2.013 0 0 0 2.013-2.01 2.01 2.01 0 0 0-2.013-2.011h-34.37zM72.891 86.525a.189.189 0 0 0-.16.09.176.176 0 0 0 0 .18l1.566 2.64a.188.188 0 0 0 .32 0l1.565-2.64a.176.176 0 0 0-.067-.246.19.19 0 0 0-.092-.024H72.89zM113.028 85.81a2.014 2.014 0 0 0-2.012 2.012 2.012 2.012 0 0 0 2.012 2.01h34.369a2.012 2.012 0 1 0 0-4.021h-34.369zM153.087 86.525a.186.186 0 0 0-.16.09.178.178 0 0 0-.025.09c0 .032.009.063.025.09l1.566 2.64a.18.18 0 0 0 .067.066.188.188 0 0 0 .252-.065l1.566-2.641a.177.177 0 0 0-.068-.246.189.189 0 0 0-.092-.024h-3.131z" fill="#AFC3D7"/>
        <path d="m95.742 89.865 2.337-2.38-2.337-2.38M98.08 87.492h-9.563" stroke="#AFC3D7" stroke-width="1.2" stroke-linecap="round" stroke-linejoin="round"/>
        <path d="M79.547 121.851H26.91a2.792 2.792 0 0 1-2.787-2.785v-9.592a2.787 2.787 0 0 1 2.787-2.785h52.637a2.792 2.792 0 0 1 2.787 2.785v9.592a2.787 2.787 0 0 1-2.787 2.785zM26.91 107.308a2.172 2.172 0 0 0-2.168 2.166v9.592a2.169 2.169 0 0 0 2.168 2.166h52.637a2.172 2.172 0 0 0 2.167-2.166v-9.592a2.168 2.168 0 0 0-2.167-2.166H26.91zM159.744 121.851h-52.637a2.79 2.79 0 0 1-2.787-2.785v-9.592a2.79 2.79 0 0 1 2.787-2.785h52.637a2.79 2.79 0 0 1 2.787 2.785v9.592a2.79 2.79 0 0 1-2.787 2.785zm-52.637-14.543a2.171 2.171 0 0 0-2.167 2.166v9.592a2.166 2.166 0 0 0 2.167 2.166h52.637a2.171 2.171 0 0 0 2.168-2.166v-9.592a2.172 2.172 0 0 0-2.168-2.166h-52.637z" fill="#E3EAF1"/>
        <path d="M32.833 112.258a2.014 2.014 0 0 0-2.013 2.011 2.01 2.01 0 0 0 2.013 2.011h34.369a2.014 2.014 0 0 0 2.013-2.011 2.01 2.01 0 0 0-2.013-2.011h-34.37zM72.891 112.98a.186.186 0 0 0-.092.025.176.176 0 0 0-.067.245l1.565 2.641a.186.186 0 0 0 .252.065.177.177 0 0 0 .068-.065l1.565-2.641a.175.175 0 0 0 0-.18.187.187 0 0 0-.16-.09h-3.13zM113.028 112.258a2.014 2.014 0 0 0-2.012 2.011 2.012 2.012 0 0 0 2.012 2.011h34.369a2.013 2.013 0 0 0 1.423-3.433 2.013 2.013 0 0 0-1.423-.589h-34.369zM153.087 112.98a.184.184 0 0 0-.092.025.177.177 0 0 0-.093.155c0 .032.009.063.025.09l1.566 2.641a.186.186 0 0 0 .159.089.187.187 0 0 0 .16-.089l1.566-2.641a.181.181 0 0 0 0-.18.184.184 0 0 0-.068-.065.187.187 0 0 0-.092-.025h-3.131z" fill="#AFC3D7"/>
        <path d="m95.742 116.324 2.337-2.38-2.337-2.38M98.08 113.941h-9.563" stroke="#AFC3D7" stroke-width="1.2" stroke-linecap="round" stroke-linejoin="round"/>
        <path fill-rule="evenodd" clip-rule="evenodd" d="M17.887 59.499c0-.783-.634-1.417-1.416-1.417h-5.667c-.783 0-1.417.634-1.417 1.417v5.666c0 .783.634 1.417 1.417 1.417h5.667c.782 0 1.416-.634 1.416-1.417V59.5zm-7.083-.756h5.667l.068.003a.756.756 0 0 1 .687.753v5.666l-.003.07a.756.756 0 0 1-.752.686h-5.667l-.069-.003a.756.756 0 0 1-.687-.753V59.5l.003-.07a.756.756 0 0 1 .753-.686zm.954 1.852h3.778v.661h-1.559v2.975h-.66v-2.975h-1.56v-.66zM176.665 59.499c0-.783-.635-1.417-1.417-1.417h-5.667c-.782 0-1.416.634-1.416 1.417v5.666c0 .783.634 1.417 1.416 1.417h5.667c.782 0 1.417-.634 1.417-1.417V59.5zm-7.084-.756h5.667l.069.003a.755.755 0 0 1 .686.753v5.666l-.003.07a.755.755 0 0 1-.752.686h-5.667l-.069-.003a.755.755 0 0 1-.686-.753V59.5l.003-.07a.755.755 0 0 1 .752-.686zm.954 1.852h3.778v.661h-1.558v2.975h-.662v-2.975h-1.558v-.66z" fill="#0369E9"/>
    </g>
</svg>
