<svg width="24" height="24" viewBox="0 0 24 24" fill="none" xmlns="http://www.w3.org/2000/svg">
<path d="M12.438 5.03906C15.8054 5.03906 18.5626 7.65051 18.796 10.9588L18.807 11.1801L18.9653 11.1927C20.784 11.3832 22.2143 12.8739 22.3108 14.719L22.316 14.9181C22.316 16.8344 20.8675 18.4421 18.9686 18.6431L17.7316 18.6563L15.5201 18.6631L14.907 18.6641C14.5204 18.6641 14.207 18.3507 14.207 17.9641C14.207 17.5775 14.5204 17.2641 14.907 17.2641L18.8203 17.251C20.0084 17.1252 20.916 16.1178 20.916 14.9181C20.916 13.6757 19.9521 12.66 18.7307 12.5775L18.57 12.5721H18.112C17.7576 12.5721 17.4648 12.3087 17.4184 11.967L17.412 11.8721V11.4141C17.412 8.66643 15.1852 6.43906 12.438 6.43906C10.586 6.43906 8.90407 7.46227 8.04295 9.08137L7.93963 9.28683L7.81063 9.55683C7.70603 9.77578 7.49695 9.92263 7.26062 9.95031L7.15789 9.95474L6.74402 9.94406C4.72262 9.94406 3.08402 11.5827 3.08402 13.6041C3.08402 15.4276 4.42797 16.9699 6.12905 17.222L6.31263 17.2441L9.35163 17.2641C9.73822 17.2666 10.0495 17.5821 10.047 17.9687C10.0447 18.323 9.77941 18.6142 9.43744 18.6583L9.34241 18.664L6.24487 18.6412C3.67637 18.4086 1.68402 16.2152 1.68402 13.6041C1.68402 10.883 3.83176 8.66366 6.52453 8.54874L6.74502 8.54306L6.78892 8.45787C7.84588 6.44033 9.89839 5.13479 12.1832 5.04411L12.438 5.03906Z" fill="#0369E9"/>
<path d="M11.5047 10.1562C11.7507 9.91017 12.1343 9.88556 12.4079 10.0824L12.4946 10.1562L16.0016 13.6632C16.275 13.9366 16.275 14.3798 16.0016 14.6531C15.7556 14.8992 15.372 14.9238 15.0985 14.727L15.0117 14.6531L11.9991 11.6403L8.98764 14.6531C8.74161 14.8992 8.358 14.9238 8.08445 14.727L7.99769 14.6531C7.75166 14.4071 7.72706 14.0235 7.92388 13.75L7.99769 13.6632L11.5047 10.1562Z" fill="#0369E9"/>
<path d="M11.9998 10.728C12.3542 10.728 12.6471 10.9914 12.6934 11.333L12.6998 11.428V18.261C12.6998 18.6476 12.3864 18.961 11.9998 18.961C11.6454 18.961 11.3525 18.6977 11.3062 18.356L11.2998 18.261V11.428C11.2998 11.0414 11.6132 10.728 11.9998 10.728Z" fill="#0369E9"/>
</svg>