<svg width="600" height="450" viewBox="0 0 600 450" fill="none" xmlns="http://www.w3.org/2000/svg">
<path d="M160.806 213.22C160.806 182.504 177.078 155.895 193.96 132.867C219.355 98.2258 249.799 79.4759 295.36 86.4399C331.812 93.4039 351.261 124.496 376.088 147.152C403.996 172.618 440 161.799 440 202.507C440 244.594 423.565 282.525 399.706 310.773C378.828 335.492 330.274 365 295.36 365C250.095 365 255.27 319.749 229.763 286.432C211.826 263.001 160.806 244.981 160.806 213.22Z" fill="#E6F0FD"/>
<path d="M160 213.22C160 182.504 176.32 155.895 193.25 132.867C218.718 98.2258 249.25 79.4759 294.943 86.4399C331.5 93.4039 351.005 124.496 375.904 147.152C403.892 172.618 440 161.799 440 202.507C440 244.594 423.518 282.525 399.59 310.773C378.652 335.492 329.958 365 294.943 365C249.547 365 254.737 319.749 229.157 286.432C211.168 263.001 160 244.981 160 213.22Z" fill="#E6F0FD"/>
<path d="M401.5 131.666V147.999M393.333 139.833H409.667" stroke="#7290B7" stroke-width="4" stroke-linecap="round"/>
<path d="M272 332.334H263.985C263.901 332.334 263.833 332.402 263.833 332.486V340.349C263.833 340.433 263.765 340.501 263.681 340.501H255.819C255.735 340.501 255.667 340.569 255.667 340.653V348.667" stroke="#7290B7" stroke-width="4" stroke-linecap="round"/>
<path d="M223.333 149.167C223.333 152.572 220.572 155.333 217.167 155.333C213.761 155.333 211 152.572 211 149.167C211 145.761 213.761 143 217.167 143C220.572 143 223.333 145.761 223.333 149.167Z" stroke="#7290B7" stroke-width="4"/>
<path d="M253.333 302.001L268.5 257.668L288.334 269.335L253.333 302.001Z" fill="white"/>
<path d="M388.667 164.334L241.667 241.334L253.334 302.001L268.5 257.667L388.667 164.334Z" fill="#E6F0FD"/>
<path d="M241.667 241.334L188.819 208.978C187.272 208.031 187.684 205.679 189.46 205.314L388.667 164.334L241.667 241.334Z" fill="white"/>
<path d="M268.5 257.667L388.667 164.334L342.453 296.212C341.616 298.6 338.801 299.621 336.628 298.324L268.5 257.667Z" fill="white"/>
<path d="M388.667 164.334L189.46 205.314C187.684 205.679 187.272 208.031 188.819 208.978L241.667 241.334M388.667 164.334L342.457 296.201C341.619 298.593 338.797 299.612 336.624 298.308L288.333 269.334M388.667 164.334L241.667 241.334M388.667 164.334L268.5 257.667M268.5 257.667L253.333 302.001M268.5 257.667L288.333 269.334M253.333 302.001L241.667 241.334M253.333 302.001L288.333 269.334" stroke="#7290B7" stroke-width="4"/>
</svg>
