<svg xmlns="http://www.w3.org/2000/svg" width="262" height="88" viewBox="0 0 262 88">
    <g fill="none" fill-rule="evenodd">
        <g>
            <g>
                <g>
                    <path fill="#E3EAF1" fill-opacity=".5" d="M0 81v4c0 1.657 1.343 3 3 3h64c1.657 0 3-1.343 3-3v-4c0-1.657-1.343-3-3-3H3c-1.657 0-3 1.343-3 3zM0 59v4c0 1.657 1.343 3 3 3h64c1.657 0 3-1.343 3-3v-4c0-1.657-1.343-3-3-3H3c-1.657 0-3 1.343-3 3zM0 37v4c0 1.657 1.343 3 3 3h64c1.657 0 3-1.343 3-3v-4c0-1.657-1.343-3-3-3H3c-1.657 0-3 1.343-3 3zM90 81v4c0 1.657 1.343 3 3 3h38c1.657 0 3-1.343 3-3v-4c0-1.657-1.343-3-3-3H93c-1.657 0-3 1.343-3 3zM90 59v4c0 1.657 1.343 3 3 3h38c1.657 0 3-1.343 3-3v-4c0-1.657-1.343-3-3-3H93c-1.657 0-3 1.343-3 3zM90 37v4c0 1.657 1.343 3 3 3h38c1.657 0 3-1.343 3-3v-4c0-1.657-1.343-3-3-3H93c-1.657 0-3 1.343-3 3zM154 81v4c0 1.657 1.343 3 3 3h38c1.657 0 3-1.343 3-3v-4c0-1.657-1.343-3-3-3h-38c-1.657 0-3 1.343-3 3zM154 59v4c0 1.657 1.343 3 3 3h38c1.657 0 3-1.343 3-3v-4c0-1.657-1.343-3-3-3h-38c-1.657 0-3 1.343-3 3zM154 37v4c0 1.657 1.343 3 3 3h38c1.657 0 3-1.343 3-3v-4c0-1.657-1.343-3-3-3h-38c-1.657 0-3 1.343-3 3zM218 81v4c0 1.657 1.343 3 3 3h38c1.657 0 3-1.343 3-3v-4c0-1.657-1.343-3-3-3h-38c-1.657 0-3 1.343-3 3zM218 59v4c0 1.657 1.343 3 3 3h38c1.657 0 3-1.343 3-3v-4c0-1.657-1.343-3-3-3h-38c-1.657 0-3 1.343-3 3zM218 37v4c0 1.657 1.343 3 3 3h38c1.657 0 3-1.343 3-3v-4c0-1.657-1.343-3-3-3h-38c-1.657 0-3 1.343-3 3z" transform="translate(-1569.000000, -1162.000000) translate(1423.000000, 1076.000000) translate(146.000000, 86.000000)"/>
                    <path fill="#E3EAF1" d="M0 3v8c0 1.657 1.343 3 3 3h64c1.657 0 3-1.343 3-3V3c0-1.657-1.343-3-3-3H3C1.343 0 0 1.343 0 3zM218 3v8c0 1.657 1.343 3 3 3h38c1.657 0 3-1.343 3-3V3c0-1.657-1.343-3-3-3h-38c-1.657 0-3 1.343-3 3zM154 3v8c0 1.657 1.343 3 3 3h38c1.657 0 3-1.343 3-3V3c0-1.657-1.343-3-3-3h-38c-1.657 0-3 1.343-3 3zM90 3v8c0 1.657 1.343 3 3 3h38c1.657 0 3-1.343 3-3V3c0-1.657-1.343-3-3-3H93c-1.657 0-3 1.343-3 3z" transform="translate(-1569.000000, -1162.000000) translate(1423.000000, 1076.000000) translate(146.000000, 86.000000)"/>
                    <path stroke="#E3EAF1" d="M80 0L80 88M144 0L144 88M208 0L208 88M0 24L262 24" opacity=".5" transform="translate(-1569.000000, -1162.000000) translate(1423.000000, 1076.000000) translate(146.000000, 86.000000)"/>
                </g>
            </g>
        </g>
    </g>
</svg>
