<svg xmlns="http://www.w3.org/2000/svg" width="140" height="114" viewBox="0 0 140 114">
    <g fill="none" fill-opacity=".5" fill-rule="evenodd">
        <g fill="#E3EAF1">
            <g>
                <g>
                    <path d="M10 27.243v8.13c0 1.658 1.343 3 3 3h124c1.657 0 3-1.342 3-3v-8.13c0-1.657-1.343-3-3-3H13c-1.657 0-3 1.343-3 3z" transform="translate(-313.000000, -1529.000000) translate(103.000000, 1452.000000) translate(210.000000, 77.000000)"/>
                    <path d="M46.483 2.357l-23.684 108c-.355 1.619.67 3.218 2.288 3.573.21.047.426.07.642.07h7.858c1.409 0 2.628-.98 2.93-2.357l23.684-108c.355-1.619-.67-3.218-2.288-3.573-.21-.047-.426-.07-.642-.07h-7.858c-1.409 0-2.628.98-2.93 2.357zM104.483 2.357l-23.684 108c-.355 1.619.67 3.218 2.288 3.573.21.047.426.07.642.07h7.858c1.409 0 2.628-.98 2.93-2.357l23.684-108c.355-1.619-.67-3.218-2.288-3.573-.21-.047-.426-.07-.642-.07h-7.858c-1.409 0-2.628.98-2.93 2.357z" transform="translate(-313.000000, -1529.000000) translate(103.000000, 1452.000000) translate(210.000000, 77.000000)"/>
                    <path d="M0 75.617v8.13c0 1.658 1.343 3 3 3h125c1.657 0 3-1.342 3-3v-8.13c0-1.657-1.343-3-3-3H3c-1.657 0-3 1.343-3 3z" transform="translate(-313.000000, -1529.000000) translate(103.000000, 1452.000000) translate(210.000000, 77.000000)"/>
                </g>
            </g>
        </g>
    </g>
</svg>
