<svg xmlns="http://www.w3.org/2000/svg" width="229" height="115" viewBox="0 0 229 115">
    <g fill="none" fill-rule="evenodd">
        <g>
            <g>
                <g>
                    <g fill="#E3EAF1" transform="translate(-269 -779) translate(103 700) translate(167 80) translate(15.553 2)">
                        <circle cx="4" cy="69" r="4" fill-opacity=".5"/>
                        <circle cx="10" cy="56" r="4" fill-opacity=".5"/>
                        <circle cx="18" cy="65" r="4"/>
                        <circle cx="78" cy="45" r="4"/>
                        <circle cx="88" cy="15" r="4"/>
                        <circle cx="79" cy="22" r="4" fill-opacity=".5"/>
                        <circle cx="11" cy="51" r="4" fill-opacity=".5"/>
                        <circle cx="31" cy="51" r="4"/>
                        <circle cx="51" cy="18" r="4" fill-opacity=".5"/>
                        <circle cx="61" cy="38" r="4"/>
                        <circle cx="131" cy="18" r="4"/>
                        <circle cx="146" cy="5" r="4"/>
                        <circle cx="115" cy="25" r="4" fill-opacity=".5"/>
                        <circle cx="96" cy="42" r="4"/>
                        <circle cx="55" cy="75" r="4"/>
                        <circle cx="65" cy="65" r="4" fill-opacity=".5"/>
                        <circle cx="8" cy="88" r="4" fill-opacity=".5"/>
                        <circle cx="140" cy="32" r="4" fill-opacity=".5"/>
                        <circle cx="130" cy="62" r="4" fill-opacity=".5"/>
                        <circle cx="90" cy="72" r="4" fill-opacity=".5"/>
                        <circle cx="110" cy="82" r="4" fill-opacity=".5"/>
                        <circle cx="150" cy="58" r="4"/>
                        <circle cx="147" cy="28" r="4"/>
                        <circle cx="191" cy="4" r="4" fill-opacity=".5"/>
                        <circle cx="177" cy="17" r="4"/>
                        <circle cx="73" cy="76" r="4" fill-opacity=".5"/>
                        <circle cx="83" cy="54" r="4"/>
                        <circle cx="23" cy="92" r="4"/>
                        <circle cx="40" cy="82" r="4" fill-opacity=".5"/>
                        <circle cx="140" cy="72" r="4" fill-opacity=".5"/>
                        <circle cx="136" cy="42" r="4" fill-opacity=".5"/>
                        <circle cx="102" cy="69" r="4"/>
                        <circle cx="112" cy="58" r="4"/>
                        <circle cx="124" cy="34" r="4"/>
                        <circle cx="156" cy="41" r="4" fill-opacity=".5"/>
                        <circle cx="173" cy="34" r="4"/>
                    </g>
                    <path stroke="#E3EAF1" stroke-linecap="round" stroke-width="2" d="M0 0v111c0 1.105.895 2 2 2h224.413" opacity=".5" transform="translate(-269 -779) translate(103 700) translate(167 80)"/>
                </g>
            </g>
        </g>
    </g>
</svg>
